<?xml version="1.0" encoding="utf-8"?>
<!-- Generator: Adobe Illustrator 16.0.3, SVG Export Plug-In . SVG Version: 6.00 Build 0)  -->
<!DOCTYPE svg PUBLIC "-//W3C//DTD SVG 1.1//EN" "http://www.w3.org/Graphics/SVG/1.1/DTD/svg11.dtd">
<svg version="1.1" id="Calque_1" xmlns="http://www.w3.org/2000/svg" xmlns:xlink="http://www.w3.org/1999/xlink" x="0px" y="0px"
	 width="5669.291px" height="3401.57px" viewBox="0 0 5669.291 3401.57" enable-background="new 0 0 5669.291 3401.57"
	 xml:space="preserve">
<path fill="#27824D" d="M3735.957,1447.689C3909.511,874.961,3886.35,435.301,4407.78,36.557
	c-204.703,71.295-344.254,138.412-492.496,349.564l-6.234-105.576c-91.078,98.329-220.799,266.845-305.427,485.921l-20.395-134.021
	c-96.882,131.594-196.53,341.579-243.528,592.51L3304.006,1089c-84.84,138.842-195.701,467.152-195.701,675.419l-36.309-89.728
	c-104.99,673.943-399.512,1070.997-730.83,1336.792C2971.919,2762.276,3562.523,2020.169,3735.957,1447.689L3735.957,1447.689z
	 M2340.306,3012.159c-196.99,56.061-384.767,87.886-547.908,94.398c58.396,76.641,38.121,133.745,12.809,238.611
	C1980.574,3255.753,2162.482,3154.661,2340.306,3012.159z M2340.428,3012.067l-0.122,0.092l0.122-0.026V3012.067z"/>
<path fill="#27824D" d="M2668.645,2414.492h-94.733c78.485,38.273,159.518,61.681,220.831,75.871
	c60.298-102.752,114.178-216.925,159.7-344.405c-158.567-65.766-389.898-188.237-653.179-457.229
	c-524.717-536.142-900.239-554.696-1225.444-512.829c154.51,10.751,345.725,116.357,394.596,150.301h-100.999
	c77.102,33.27,302.722,203.934,399.358,277.688h-104.593c103.18,109.723,271.819,224.728,343.514,277.684h-100.509
	c74.337,85.211,262.635,218.896,380.375,277.717h-109.201C2308.513,2269.169,2542.794,2379.073,2668.645,2414.492z
	 M3718.633,2344.365c-41.35,3.682-91.512,0.459-147.414-7.988c-90.586,83.717-186.918,160.995-288.287,231.271
	c108.465-12.161,249.829-30.563,388.241-55.015c150.638-26.631,309.385-35.541,384.582,18.309
	c83.767,59.991,143.024,137.398,143.024,137.398l14.464-14.469c-57.841-72.306-150.36-193.335-201.536-252.988
	C3955.86,2335.701,3892.183,2328.943,3718.633,2344.365z"/>
<path fill="#82BA51" d="M3049.391,1801.245c-382.526-262.847-597.918-518.233-962.813-622.181
	c-352.881-100.539-651.548-85.701-1010.728-3.165c325.208-41.867,700.728-23.313,1225.475,512.829
	c263.28,268.992,494.617,391.464,653.178,457.229c37.691-105.45,69.729-219.938,94.889-344.709V1801.245z"/>
<path fill="#82BA51" d="M4013.61,2250.522c-68.222-60.791-205.069-86.965-265.122-98.052
	c149.686-174.568,269.271-371.865,342.289-591.036c236.798-710.402-38.523-1099.164,317.003-1524.908
	c-521.43,398.744-498.269,838.402-671.823,1411.13c-173.434,572.484-764.408,1314.958-1395.22,1564.165
	c417.724-118.904,876.709-347.016,1230.482-675.444c55.902,8.419,106.064,11.67,147.41,7.988
	c173.554-15.422,237.23-8.664,293.078,56.518c25.434,29.615,61.005,74.369,97.498,120.751
	C4105.366,2407.429,4083.217,2312.572,4013.61,2250.522L4013.61,2250.522z"/>
</svg>
