<?xml version="1.0" encoding="utf-8"?>
<!-- Generator: Adobe Illustrator 16.0.3, SVG Export Plug-In . SVG Version: 6.00 Build 0)  -->
<!DOCTYPE svg PUBLIC "-//W3C//DTD SVG 1.1//EN" "http://www.w3.org/Graphics/SVG/1.1/DTD/svg11.dtd">
<svg version="1.1" id="Calque_1" xmlns="http://www.w3.org/2000/svg" xmlns:xlink="http://www.w3.org/1999/xlink" x="0px" y="0px"
	 width="5669.291px" height="3401.57px" viewBox="0 0 5669.291 3401.57" enable-background="new 0 0 5669.291 3401.57"
	 xml:space="preserve">
<path fill="#045E51" d="M2160.541,2458.98c-458.421-80.887-798.226-494.479-798.226-982.44
	c0-487.976,339.805-901.581,798.226-982.427c7.924-1.436,13.654-8.375,13.574-16.405V50.131c0-10.145-8.468-18.122-18.227-16.779
	c-329.261,40.497-633.435,201.192-861.07,456.281c-240.385,269.7-372.896,620.06-372.896,987.066
	c0,366.953,132.51,717.353,372.896,987.066c227.302,254.957,531.144,415.426,860.924,456.242c9.16,0.877,17.283-5.852,18.161-14.998
	c0.04-0.598,0.08-1.184,0.053-1.754v-427.539c0.08-8.055-5.65-14.996-13.56-16.43L2160.541,2458.98z M3335.53,22.584h-704.895
	c-9.041,0.146-16.26,7.591-16.141,16.645c0,0.04,0.014,0.067,0.014,0.133v1658.591c0.213,8.8-6.568,16.193-15.329,16.765h-1.45
	c-7.871,0.346-14.849-5.066-16.458-12.777c-94.141-393.688-247.126-554.849-523.965-554.849h-160.483
	c-10.224,0-17.909,9.772-15.808,20.235l130.61,490.143c1.582,7.817,8.149,13.441,15.807,13.441h63.457
	c369.877,0,523.659,134.452,523.659,495.938v728.814l-0.638,37.664c-2.074,84.023-10.888,290.135-48.752,424.586
	c-2.58,8.773,2.433,17.961,11.195,20.58c1.449,0.4,2.951,0.625,4.466,0.652h507.971c9.188-0.213,16.5-7.846,16.26-17.031
	c0-1.436-0.252-2.832-0.625-4.201c-34.832-123.178-45.082-306.221-48.101-400.854l-1.276-78.986v-712.033
	c0.159-361.01,154.102-495.276,523.646-495.276h63.469c7.818-0.093,14.439-5.757,15.809-13.454l130.596-490.143
	c2.088-10.45-5.57-20.235-15.781-20.235h-160.51c-276.839,0-429.783,161.161-523.951,554.849
	c-1.648,7.671-8.589,13.056-16.459,12.776h-1.437c-8.722-0.678-15.408-8.017-15.315-16.765V496.627
	c0-9.267,7.22-16.765,16.154-16.765h264.514c535.307,0,971.072,446.988,971.379,996.2c0,266.39-99.738,516.839-281.014,705.228
	c-142.734,148.371-320.793,243.814-517.225,277.998c-7.938,1.434-13.668,8.375-13.575,16.43v427.393
	c0,10.117,8.47,18.08,18.215,16.898c310.437-38.131,601.341-184.189,823.978-415.586
	c264.542-274.846,410.174-640.15,409.828-1028.719C4747.063,674.379,4113.786,22.424,3335.837,22.424l-0.188,0.16H3335.53z"/>
</svg>
