<?xml version="1.0" encoding="utf-8"?>
<!-- Generator: Adobe Illustrator 16.0.3, SVG Export Plug-In . SVG Version: 6.00 Build 0)  -->
<!DOCTYPE svg PUBLIC "-//W3C//DTD SVG 1.1//EN" "http://www.w3.org/Graphics/SVG/1.1/DTD/svg11.dtd">
<svg version="1.1" id="Calque_1" xmlns="http://www.w3.org/2000/svg" xmlns:xlink="http://www.w3.org/1999/xlink" x="0px" y="0px"
	 width="11338.581px" height="7086.609px" viewBox="0 0 11338.581 7086.609" enable-background="new 0 0 11338.581 7086.609"
	 xml:space="preserve">
<path fill="#FFC532" d="M3987.845,4698.525c-82.639-54.078-134.67-144.201-140.179-242.807V3075.462
	c-5.507-98.606-57.537-188.73-140.176-242.808l-876.115-504.141c-77.097-44.555-140.178-8.01-140.178,81.104v2713.447
	c5.508,98.609,57.539,188.732,140.178,242.811L5184.365,6723.6c77.099,44.556,140.179,8.01,140.179-81.104V5632.715
	c-5.509-98.607-57.539-188.734-140.179-242.811L3987.845,4698.525z"/>
<path fill="#26B7FF" d="M6959.622,2333.521c88.148,44.526,192.207,44.526,280.357,0l875.109-505.643
	c77.1-44.558,77.1-117.651,0-161.707L5763.101,309.448c-88.148-44.526-192.207-44.526-280.357,0L3129.756,1668.175
	c-77.099,44.555-77.099,117.648,0,161.704l876.112,505.643c88.147,44.529,192.209,44.529,280.354,0l1195.02-690.876
	c88.167-44.449,192.19-44.449,280.358,0L6959.622,2333.521z"/>
<path fill="#495057" d="M4455.939,3053.435c5.509-98.607,57.54-188.73,140.179-242.808l887.63-512.15
	c88.165-44.449,192.187-44.449,280.354,0l887.127,512.15c82.641,54.077,134.67,144.2,140.18,242.808v1024.303
	c-5.51,98.607-57.539,188.73-140.18,242.807l-887.127,511.148c-88.168,44.449-192.189,44.449-280.354,0l-887.63-510.648
	c-82.639-54.074-134.67-144.201-140.179-242.807V3053.435z"/>
<path fill="#FF4D4D" d="M6090.015,5388.402c-82.635,54.078-134.666,144.203-140.176,242.811v1011.283
	c0,89.113,63.08,125.659,140.176,81.104l2352.994-1357.725c82.578-54.135,134.592-144.227,140.176-242.811V2408.116
	c0-89.112-63.078-125.661-140.176-81.104l-876.115,505.643c-82.578,54.135-134.59,144.227-140.176,242.808v1380.256
	c-5.51,98.605-57.541,188.729-140.182,242.807L6090.015,5388.402z"/>
</svg>
