<?xml version="1.0" encoding="utf-8"?>
<!-- Generator: Adobe Illustrator 16.0.3, SVG Export Plug-In . SVG Version: 6.00 Build 0)  -->
<!DOCTYPE svg PUBLIC "-//W3C//DTD SVG 1.1//EN" "http://www.w3.org/Graphics/SVG/1.1/DTD/svg11.dtd">
<svg version="1.1" id="Calque_1" xmlns="http://www.w3.org/2000/svg" xmlns:xlink="http://www.w3.org/1999/xlink" x="0px" y="0px"
	 width="11338.582px" height="7086.609px" viewBox="0 0 11338.582 7086.609" enable-background="new 0 0 11338.582 7086.609"
	 xml:space="preserve">
<path fill="#495057" d="M4455.939,3053.436c5.509-98.607,57.54-188.73,140.18-242.809l887.629-512.15
	c88.166-44.448,192.188-44.448,280.354,0l887.127,512.15c82.642,54.077,134.67,144.2,140.181,242.809v1024.303
	c-5.51,98.607-57.539,188.73-140.181,242.807l-887.127,511.148c-88.168,44.449-192.188,44.449-280.354,0l-887.629-510.648
	c-82.64-54.074-134.67-144.201-140.18-242.807V3053.436z"/>
<path fill="#3640E8" d="M5495.062,299.808c-2182.008,224.797-3507.99,2619.538-2566.657,4635.39
	c1061.245,2272.766,4113.478,2523.209,5507.273,451.917c113.465-168.551,280.664-481.783,271.729-509.207
	c-3.176-9.789-294.863-313.114-648.129-674.06l-642.369-656.331l653.272-669.841l653.25-669.864l-90.332-170.755
	C7998.337,838.264,6785.56,166.882,5495.062,299.808z"/>
<path fill="#FFFFFF" d="M6246.63,778.272c775.412,135.13,1455.113,591.337,1867.115,1253.214l58.025,93.341l-536.252,548.791
	l-536.371,548.791l-644.811-664.271l-644.692-664.294l-808.1,826.967l-808.099,826.895l805.706,824.55l805.729,824.644
	l650.926-666.001l651.068-666.001l533.053,545.543l532.957,545.567l-40.413,70.61
	c-1019.979,1780.957-3671.941,1735.424-4694.504-80.66C2293.265,2912.969,3996.073,386.228,6246.63,778.272z"/>
<path fill="#FFFFFF" d="M6304.891,3044.378l484.106,495.602l-492.07,503.376l-492.047,503.329l-488.04-499.395l-487.946-499.536
	l487.946-499.513c268.434-274.739,491.572-499.536,495.862-499.536C5817.111,2548.705,6038.542,2771.795,6304.891,3044.378z"/>
</svg>
