<?xml version="1.0" encoding="utf-8"?>
<!-- Generator: Adobe Illustrator 21.0.2, SVG Export Plug-In . SVG Version: 6.00 Build 0)  -->
<svg version="1.1" id="Calque_1" xmlns="http://www.w3.org/2000/svg" xmlns:xlink="http://www.w3.org/1999/xlink" x="0px" y="0px"
	 viewBox="0 0 120 120" style="enable-background:new 0 0 120 120;" xml:space="preserve">
<style type="text/css">
	.st0{fill:#FFFFFF;}
</style>
<g>
	<rect width="120" height="120"/>
	<path class="st0" d="M16.5,22.3c0-3.8,2.4-5.7,5.7-5.7c3.3,0,5.7,1.8,5.7,5.7v1.8h-4.4v-2.2c0-0.7,0-1.8-1.3-1.8
		c-1.3,0-1.3,1.1-1.3,1.8v9.7c0,0.5,0,1.8,1.3,1.8c1.3,0,1.3-1.3,1.3-1.8v-2.9h4.4v2.5c0,3.5-2.2,5.7-5.7,5.7
		c-3.5,0-5.7-2.2-5.7-5.7V22.3z"/>
	<path class="st0" d="M33.2,29.6h2.2l-1-9.6h0L33.2,29.6z M31.4,16.9h5.9l3.6,19.7h-4.7l-0.4-3.5h-3.1l-0.5,3.5h-4.4L31.4,16.9z"/>
	<polygon class="st0" points="41.8,16.9 48.8,16.9 50,26.7 50.1,26.7 51.3,16.9 58.3,16.9 58.3,36.6 54,36.6 54,21.3 54,21.3 
		51.5,36.6 48.6,36.6 46.1,21.3 46.1,21.3 46.1,36.6 41.8,36.6 	"/>
	<path class="st0" d="M63.8,25.3h1.1c1.4,0,1.6-0.7,1.6-2.5c0-2.4-0.7-2.4-2.2-2.4h-0.5V25.3z M59.3,16.9h4.7c4.9,0,6.9,0.8,6.9,6
		c0,2.9-0.7,5.9-4.7,5.9h-2.5v7.8h-4.4V16.9z"/>
	<path class="st0" d="M71.7,16.9h4.4v14.4c0,1.1,0,2,1.3,2c1.3,0,1.3-0.9,1.3-2V16.9h4.4v14.3c0,3.5-2.2,5.7-5.7,5.7
		c-3.5,0-5.7-2.2-5.7-5.7V16.9z"/>
	<path class="st0" d="M88.3,29.9v1.5c0,1.1,0.2,2,1.5,2c1,0,1.5-0.7,1.5-1.5c0-1.7-1.8-2.9-3.5-4.2c-1.8-1.5-3.6-2.6-3.6-5.6
		c0-3.9,2.1-5.5,5.7-5.5c3.9,0,5.5,1.9,5.5,5v1.8h-4.1v-1.1c0-1-0.1-2.2-1.4-2.2c-0.9,0-1.5,0.6-1.5,1.5c0,1.2,1.9,2.5,3.7,3.9
		c1.6,1.5,3.7,2.4,3.7,6.4c0,1.9-1.4,5-6,5c-4.4,0-5.7-2.8-5.7-4.9v-2.1H88.3z"/>
	<polygon class="st0" points="16.5,39 25.8,39 25.8,42.8 20.9,42.8 20.9,46.8 25.3,46.8 25.3,50.6 20.9,50.6 20.9,58.7 16.5,58.7 	
		"/>
	<path class="st0" d="M30.7,53.8c0,0.5,0,1.8,1.3,1.8c1.3,0,1.3-1.3,1.3-1.8V44c0-0.7,0-1.8-1.3-1.8c-1.3,0-1.3,1.1-1.3,1.8V53.8z
		 M26.3,44.4c0-3.8,2.4-5.7,5.7-5.7c3.3,0,5.7,1.8,5.7,5.7v8.9c0,3.5-2.2,5.7-5.7,5.7c-3.5,0-5.7-2.2-5.7-5.7V44.4z"/>
	<polygon class="st0" points="38.6,39 43.4,39 47,50.7 47.1,50.7 47.1,39 51.3,39 51.3,58.7 46.5,58.7 42.9,46.6 42.9,46.6 
		42.9,58.7 38.6,58.7 	"/>
	<path class="st0" d="M56.8,55.4h0.7c1.2,0,1.9-0.5,1.9-1.7v-9.6c0-1.2-0.7-1.7-1.9-1.7h-0.7V55.4z M52.4,39H59
		c3.8,0,4.8,2.2,4.8,5.3v9.4c0,3.6-2.5,5.1-4.8,5.1h-6.6V39z"/>
	<polygon class="st0" points="64.7,39 74.6,39 74.6,42.8 69.1,42.8 69.1,46.8 73.9,46.8 73.9,50.6 69.1,50.6 69.1,54.9 74.8,54.9 
		74.8,58.7 64.7,58.7 	"/>
	<path class="st0" d="M80,46.9h1.1c1.5,0,1.5-1,1.5-2.3c0-1.4,0-2.2-1.7-2.2H80V46.9z M75.5,39h5.9c4,0,5.6,1.2,5.6,4.8
		c0,2.3-0.3,3.8-2.7,4.6v0c1.6,0.3,2.6,1.5,2.6,3.1V55c0,1.3,0,3.1,0.5,3.7H83c-0.5-0.6-0.5-2.4-0.5-3.7v-3.2c0-1.1-0.4-1.6-1.7-1.6
		H80v8.5h-4.4V39z"/>
	<rect x="88.2" y="39" class="st0" width="4.4" height="19.7"/>
	<polygon class="st0" points="93.5,39 103.4,39 103.4,42.8 97.9,42.8 97.9,46.8 102.7,46.8 102.7,50.6 97.9,50.6 97.9,54.9 
		103.6,54.9 103.6,58.7 93.5,58.7 	"/>
	<path class="st0" d="M20.9,77.5h0.7c1.2,0,1.9-0.5,1.9-1.7v-9.6c0-1.2-0.7-1.7-1.9-1.7h-0.7V77.5z M16.5,61.2h6.6
		c3.8,0,4.8,2.2,4.8,5.3v9.4c0,3.6-2.5,5.1-4.8,5.1h-6.6V61.2z"/>
	<polygon class="st0" points="28.8,61.2 38.7,61.2 38.7,65 33.3,65 33.3,68.9 38,68.9 38,72.7 33.3,72.7 33.3,77.1 38.9,77.1 
		38.9,80.9 28.8,80.9 	"/>
	<polygon class="st0" points="16.5,83.3 20.9,83.3 20.9,99.2 25.8,99.2 25.8,103 16.5,103 	"/>
	<path class="st0" d="M25.7,86.9c0,1.4-0.9,2.4-1.7,3.4h-2c0.7-0.8,1.6-1.6,1.8-2.7H22v-4.2h3.7V86.9z"/>
	<rect x="27.5" y="83.3" class="st0" width="4.4" height="19.7"/>
	<polygon class="st0" points="32.7,83.3 39.7,83.3 40.9,93.1 41,93.1 42.2,83.3 49.2,83.3 49.2,103 44.9,103 44.9,87.7 44.9,87.7 
		42.4,103 39.5,103 37,87.7 37,87.7 37,103 32.7,103 	"/>
	<path class="st0" d="M55.2,96h2.2l-1-9.6h0L55.2,96z M53.4,83.3h5.9l3.6,19.7h-4.7l-0.4-3.5h-3.1l-0.5,3.5h-4.4L53.4,83.3z"/>
	<path class="st0" d="M62.9,88.7c0-3.8,2.4-5.7,5.7-5.7c3,0,5.7,1.1,5.7,4.8V90h-4.2v-2c0-1-0.4-1.6-1.4-1.6c-1.2,0-1.4,1.2-1.4,1.8
		V98c0,0.5,0,1.8,1.3,1.8c1,0,1.4-0.5,1.4-1.5v-2.5h-1.6v-3.6h5.9V103h-3.9v-1.6h0c-0.8,1.3-1.9,1.9-3.4,1.9c-3.2,0-4.1-2.7-4.1-5.7
		V88.7z"/>
	<polygon class="st0" points="75.2,83.3 85.1,83.3 85.1,87.1 79.6,87.1 79.6,91 84.4,91 84.4,94.8 79.6,94.8 79.6,99.2 85.3,99.2 
		85.3,103 75.2,103 	"/>
</g>
</svg>
