<?xml version="1.0" encoding="utf-8"?>
<!-- Generator: Adobe Illustrator 21.0.2, SVG Export Plug-In . SVG Version: 6.00 Build 0)  -->
<svg version="1.1" id="Calque_1" xmlns="http://www.w3.org/2000/svg" xmlns:xlink="http://www.w3.org/1999/xlink" x="0px" y="0px"
	 viewBox="0 0 176 158" style="enable-background:new 0 0 176 158;" xml:space="preserve">
<style type="text/css">
	.st0{fill-rule:evenodd;clip-rule:evenodd;fill:#F4EF28;}
</style>
<g>
	<path class="st0" d="M141.7,150.3H26.2c-11.5,0-20.8-9.4-20.8-20.8V27.8C5.4,16.4,14.8,7,26.2,7h115.5c11.5,0,20.8,9.4,20.8,20.8
		v101.6C162.5,140.9,153.1,150.3,141.7,150.3z"/>
	<path d="M84.3,127.3c-21.5,0-39.2-14.4-47.3-24.4c-2.4-3-1.9-7.4,1.1-9.7c3-2.4,7.4-1.9,9.8,1.1c0.8,1,20.6,25.3,46.2,17.8
		c21.3-6.3,21.3-37.8,21.3-54.7c0-3.8,3.1-6.9,6.9-6.9s6.9,3.1,6.9,6.9c0,19.1,0,58.9-31.3,68C93.3,126.6,88.7,127.3,84.3,127.3z"/>
	<g>
		<path d="M43.7,70.3c-3.8,0-6.9-3.1-6.9-6.9v-6.9c0-3.8,3.1-6.9,6.9-6.9s6.9,3.1,6.9,6.9v6.9C50.7,67.2,47.6,70.3,43.7,70.3z"/>
	</g>
</g>
</svg>
