<?xml version="1.0" encoding="utf-8"?>
<!-- Generator: Adobe Illustrator 21.0.2, SVG Export Plug-In . SVG Version: 6.00 Build 0)  -->
<svg version="1.1" id="Calque_1" xmlns="http://www.w3.org/2000/svg" xmlns:xlink="http://www.w3.org/1999/xlink" x="0px" y="0px"
	 viewBox="0 0 89 97.5" style="enable-background:new 0 0 89 97.5;" xml:space="preserve">
<style type="text/css">
	.st0{fill:#FF4000;}
	.st1{fill-rule:evenodd;clip-rule:evenodd;fill:#FF4000;}
</style>
<g>
	<path class="st0" d="M41.8,22.4c0-0.1,0-0.1,0-0.2c0,0,0,0,0,0c0-0.2-0.1-0.4-0.2-0.5c0-0.1-0.1-0.1-0.2-0.2
		c-0.5-0.4-1.5-0.2-1.6,0.6c0,0.3,0,0.5,0.2,0.7c0.1,0.2,0.5,0.5,0.9,0.4C41.4,23.2,41.8,22.9,41.8,22.4"/>
	<path class="st0" d="M38.5,22.3c0-0.2,0-0.3-0.1-0.4c-0.1-0.1-0.1-0.2-0.2-0.3c-0.2-0.1-0.4-0.2-0.6-0.2c-0.2,0-0.4,0.1-0.6,0.2
		c-0.1,0.1-0.2,0.2-0.2,0.3c0,0,0,0.1-0.1,0.1c-0.1,0.2-0.1,0.4,0,0.6c0.1,0.4,0.5,0.8,1,0.7c0.3,0,0.5-0.1,0.6-0.3c0,0,0,0,0,0
		c0,0,0.1-0.1,0.1-0.1c0,0,0,0,0,0c0,0,0-0.1,0.1-0.1c0,0,0-0.1,0-0.1c0,0,0-0.1,0-0.1c0,0,0-0.1,0-0.1
		C38.5,22.4,38.5,22.3,38.5,22.3C38.5,22.3,38.5,22.3,38.5,22.3C38.5,22.3,38.5,22.3,38.5,22.3C38.5,22.3,38.5,22.3,38.5,22.3"/>
	<path class="st0" d="M33.4,22.1C33.4,22.1,33.4,22.1,33.4,22.1C33.4,22.1,33.4,22.1,33.4,22.1c0,0.1,0,0.2,0,0.3v0c0,0,0,0,0,0.1
		c0,0,0,0,0,0.1c0,0,0,0,0,0c0.1,0.4,0.5,0.7,0.9,0.6c0.1,0,0.1,0,0.2,0h0c0,0,0.1,0,0.1,0c0,0,0,0,0.1,0c0,0,0,0,0.1,0
		c0,0,0.1,0,0.1-0.1c0,0,0,0,0,0c0.1-0.1,0.1-0.1,0.2-0.2c0,0,0-0.1,0-0.1c0,0,0,0,0,0c0,0,0,0,0-0.1c0,0,0,0,0,0c0,0,0,0,0,0
		c0-0.1,0-0.1,0-0.2v0v0c0-0.1,0-0.3-0.1-0.4c-0.1-0.1-0.2-0.3-0.3-0.3c-0.1-0.1-0.3-0.2-0.5-0.2c-0.2,0-0.4,0.1-0.5,0.2
		c-0.1,0-0.2,0.1-0.3,0.3c0,0.1-0.1,0.1-0.1,0.2C33.4,22,33.4,22,33.4,22.1"/>
	<path class="st0" d="M31.4,23c0.2-0.2,0.4-0.4,0.4-0.8v0c0,0,0-0.1,0-0.1c0-0.1,0-0.1-0.1-0.2c-0.1-0.2-0.2-0.3-0.3-0.3
		c0,0,0,0,0,0c-0.1,0-0.2,0-0.3-0.1v1.7c0,0,0,0,0,0C31.2,23.1,31.3,23.1,31.4,23"/>
	<path class="st0" d="M41.5,20.7c0,0.4,0.2,0.8,0.6,0.9c0,0,0,0,0,0c0.1,0,0.1,0,0.2,0.1c0,0,0,0,0,0c0,0,0,0,0.1,0c0,0,0,0,0,0
		c0,0,0,0,0,0v-2h0C42,19.7,41.5,20.1,41.5,20.7"/>
	<path class="st0" d="M40.2,20.7c0-0.6-0.4-1-0.9-1c-0.8-0.1-1.4,0.8-0.9,1.5c0.1,0.1,0.3,0.3,0.5,0.4c0,0,0,0,0,0
		c0.2,0,0.4,0.1,0.5,0C39.8,21.5,40.1,21.2,40.2,20.7"/>
	<path class="st0" d="M35.8,21.6C35.8,21.6,35.8,21.6,35.8,21.6c0,0,0.1,0,0.2,0h0c0.5-0.1,0.8-0.4,0.8-0.8c0.1-1.3-1.9-1.3-1.8,0
		C35,21.1,35.3,21.5,35.8,21.6"/>
	<path class="st0" d="M32.7,21.5c0.4-0.1,0.7-0.3,0.8-0.8c0.1-0.6-0.5-1-1-0.9c-0.4,0-0.8,0.4-0.8,1C31.8,21.2,32.2,21.6,32.7,21.5"
		/>
	<path class="st0" d="M41.8,19.1c0.1-1.3-1.8-1.5-1.9-0.2c0,0.3,0,0.5,0.2,0.7c0.1,0.2,0.5,0.5,0.9,0.4
		C41.4,19.9,41.8,19.6,41.8,19.1"/>
	<path class="st0" d="M37.6,18.1c-0.5,0-0.9,0.4-0.9,0.9c0,0.5,0.5,1,1,0.9c0.5,0,0.9-0.4,0.9-0.9C38.5,18.5,38.1,18.1,37.6,18.1"/>
	<path class="st0" d="M34.3,19.9c0.4,0,0.7-0.3,0.8-0.7c0.1-0.6-0.3-1.1-0.9-1.1c-0.5,0-0.9,0.4-0.9,0.9
		C33.4,19.5,33.8,19.9,34.3,19.9"/>
	<path class="st0" d="M31.8,18.9c0-0.4-0.4-0.7-0.8-0.7v1.7c0,0,0,0,0.1,0C31.5,19.8,31.9,19.4,31.8,18.9"/>
	<path class="st0" d="M41.5,17.4c0,0.5,0.4,1,1,1v-2h0C42,16.4,41.5,16.8,41.5,17.4"/>
	<path class="st0" d="M39.3,16.4c-0.8-0.1-1.4,0.8-0.9,1.5c0.1,0.2,0.5,0.5,0.9,0.4c0.4-0.1,0.8-0.4,0.8-0.9
		C40.2,16.9,39.8,16.4,39.3,16.4"/>
	<path class="st0" d="M36,18.3c0.5-0.1,0.8-0.4,0.8-0.8c0.1-1.3-1.9-1.3-1.8,0C35,17.9,35.4,18.3,36,18.3"/>
	<path class="st0" d="M32.7,18.2c0.4-0.1,0.7-0.3,0.8-0.8c0.1-0.6-0.5-1-1-0.9c-0.4,0-0.8,0.4-0.8,1C31.8,17.9,32.2,18.3,32.7,18.2"
		/>
	<path class="st0" d="M41.8,15.8c0.1-1.3-1.8-1.5-1.9-0.2c0,0.3,0,0.5,0.2,0.7c0.1,0.2,0.5,0.5,0.9,0.4
		C41.4,16.6,41.8,16.3,41.8,15.8"/>
	<path class="st0" d="M37.6,14.8c-0.5,0-0.9,0.4-0.9,0.9c0,0.5,0.5,1,1,0.9c0.5,0,0.9-0.4,0.9-0.9C38.5,15.2,38.1,14.8,37.6,14.8"/>
	<path class="st0" d="M34.3,16.6c0.4,0,0.7-0.3,0.8-0.7c0.1-0.6-0.3-1.1-0.9-1.1c-0.5,0-0.9,0.4-0.9,0.9
		C33.4,16.2,33.8,16.6,34.3,16.6"/>
	<path class="st0" d="M31.8,15.6c0-0.4-0.4-0.7-0.8-0.7v1.7c0,0,0,0,0.1,0C31.5,16.5,31.9,16.1,31.8,15.6"/>
	<path class="st0" d="M41.5,14.1c0,0.5,0.4,1,1,1v-2h0C42,13.1,41.5,13.5,41.5,14.1"/>
	<path class="st0" d="M39.3,13.1c-0.8-0.1-1.4,0.8-0.9,1.5c0.1,0.2,0.5,0.4,0.9,0.4c0.4-0.1,0.8-0.4,0.8-0.9
		C40.2,13.6,39.8,13.2,39.3,13.1"/>
	<path class="st0" d="M36,15c0.5-0.1,0.8-0.4,0.8-0.8c0.1-1.3-1.9-1.3-1.8,0C35,14.6,35.4,15,36,15"/>
	<path class="st0" d="M32.7,14.9c0.4-0.1,0.7-0.3,0.8-0.8c0.1-0.6-0.5-1-1-0.9c-0.4,0-0.8,0.4-0.8,1C31.8,14.6,32.2,15,32.7,14.9"/>
	<path class="st0" d="M41.8,12.5c0.1-1.3-1.8-1.5-1.9-0.2c0,0.3,0,0.5,0.2,0.7c0.1,0.2,0.5,0.5,0.9,0.4C41.4,13.3,41.8,13,41.8,12.5
		"/>
	<path class="st0" d="M37.6,11.5c-0.5,0-0.9,0.4-0.9,0.9c0,0.5,0.5,1,1,0.9c0.5,0,0.9-0.4,0.9-0.9C38.5,11.9,38.1,11.5,37.6,11.5"/>
	<path class="st0" d="M34.3,13.3c0.4,0,0.7-0.3,0.8-0.7c0.1-0.6-0.3-1.1-0.9-1.1c-0.5,0-0.9,0.4-0.9,0.9
		C33.4,12.9,33.8,13.3,34.3,13.3"/>
	<path class="st0" d="M31.8,12.3c0-0.4-0.4-0.7-0.8-0.7v1.7c0,0,0,0,0.1,0C31.5,13.2,31.9,12.8,31.8,12.3"/>
	<path class="st0" d="M49.1,9.7c-0.5,0-1,0.4-1,1.1c0,0,0,0,0,0.1h2.1c0,0,0,0,0-0.1C50.2,10.2,49.7,9.7,49.1,9.7"/>
	<path class="st0" d="M45.9,9.7c-0.6-0.1-1.2,0.4-1.1,1.1h2C46.8,10.2,46.4,9.8,45.9,9.7"/>
	<path class="st0" d="M42.5,9.8c-0.5,0-1,0.4-1,1c0,0.5,0.4,1,1,1v-0.9h1c0,0,0,0,0-0.1C43.5,10.2,43.1,9.8,42.5,9.8"/>
	<path class="st0" d="M39.3,9.8c-0.8-0.1-1.4,0.8-0.9,1.5c0.1,0.2,0.5,0.4,0.9,0.4c0.4-0.1,0.8-0.4,0.8-0.9
		C40.2,10.3,39.8,9.9,39.3,9.8"/>
	<path class="st0" d="M36.8,10.8c0.1-1.3-1.9-1.3-1.8,0c0,0.5,0.4,0.9,1,0.8C36.5,11.6,36.8,11.3,36.8,10.8"/>
	<path class="st0" d="M32.7,11.6c0.4-0.1,0.7-0.3,0.8-0.8c0.1-0.6-0.5-1-1-0.9c-0.4,0-0.8,0.4-0.8,1C31.8,11.3,32.2,11.7,32.7,11.6"
		/>
	<path class="st0" d="M48.5,9.1c0-0.6-0.4-1-1-1c-0.5,0-1,0.4-1,1c0,0.6,0.5,1.1,1.1,1C48.1,10.1,48.5,9.7,48.5,9.1"/>
	<path class="st0" d="M45.2,9.2c0-0.6-0.4-1-0.9-1.1c-0.6-0.1-1.1,0.5-1.1,1.1c0.1,0.6,0.5,1,1.1,0.9c0.3,0,0.6-0.2,0.7-0.4
		C45,9.6,45.1,9.4,45.2,9.2"/>
	<path class="st0" d="M41.8,9.2C41.9,7.9,40,7.8,39.9,9c0,0.3,0,0.5,0.2,0.7c0.1,0.2,0.5,0.5,0.9,0.4C41.4,10,41.8,9.7,41.8,9.2"/>
	<path class="st0" d="M37.6,8.2c-0.5,0-0.9,0.4-0.9,0.9c0,0.5,0.5,1,1,0.9c0.5,0,0.9-0.4,0.9-0.9C38.5,8.6,38.1,8.2,37.6,8.2"/>
	<path class="st0" d="M34.3,8.2c-0.5,0-0.9,0.4-0.9,0.9c0,0.5,0.4,0.9,0.9,0.9c0.4,0,0.7-0.3,0.8-0.7C35.3,8.7,34.8,8.2,34.3,8.2"/>
	<path class="st0" d="M31.8,9c0-0.4-0.4-0.7-0.8-0.7v1.7c0,0,0,0,0.1,0C31.5,9.9,31.9,9.5,31.8,9"/>
	<path class="st0" d="M49.2,8.5c0.6,0,1-0.4,1-1c0-0.6-0.5-1.1-1.1-1.1c-0.5,0-1,0.4-1,1.1C48,8.1,48.5,8.6,49.2,8.5"/>
	<path class="st0" d="M45.4,8.4c0.1,0.1,0.4,0.1,0.6,0.1c0.5-0.1,0.8-0.4,0.9-0.9c0.1-0.7-0.4-1.1-0.9-1.1c-0.6-0.1-1.2,0.4-1.1,1.1
		C44.8,8,45.1,8.3,45.4,8.4"/>
	<path class="st0" d="M42.6,8.4c0.5,0,0.9-0.4,0.9-1c0-0.5-0.4-1-1-1c-0.5,0-1,0.4-1,1C41.5,8,42,8.5,42.6,8.4"/>
	<path class="st0" d="M39.3,6.5c-0.8-0.1-1.4,0.8-0.9,1.5c0.1,0.2,0.5,0.5,0.9,0.4c0.4-0.1,0.8-0.4,0.8-0.9
		C40.2,7,39.8,6.6,39.3,6.5"/>
	<path class="st0" d="M35,7.5c0,0.5,0.4,0.9,1,0.8c0.5-0.1,0.8-0.4,0.8-0.8C36.9,6.2,34.9,6.3,35,7.5"/>
	<path class="st0" d="M32.7,8.3c0.4-0.1,0.7-0.3,0.8-0.8c0.1-0.6-0.5-1-1-1c-0.4,0-0.8,0.4-0.8,1C31.8,8,32.2,8.4,32.7,8.3"/>
	<path class="st0" d="M48.5,5.8c0-0.6-0.4-1-1-1c-0.5,0-1,0.4-1,1c0,0.6,0.5,1.1,1.1,1C48.1,6.8,48.5,6.4,48.5,5.8"/>
	<path class="st0" d="M44.3,6.8c0.3,0,0.6-0.2,0.7-0.4c0-0.1,0.1-0.2,0.2-0.5c0-0.6-0.4-1-0.9-1.1c-0.6-0.1-1.1,0.5-1.1,1.1
		C43.2,6.5,43.7,6.9,44.3,6.8"/>
	<path class="st0" d="M39.9,5.7c0,0.3,0,0.5,0.2,0.7c0.1,0.2,0.5,0.5,0.9,0.4c0.4-0.1,0.8-0.4,0.8-0.8C41.9,4.6,40,4.5,39.9,5.7"/>
	<path class="st0" d="M37.6,4.9c-0.5,0-0.9,0.4-0.9,0.9c0,0.5,0.5,1,1,0.9c0.5,0,0.9-0.4,0.9-0.9C38.5,5.3,38.1,4.9,37.6,4.9"/>
	<path class="st0" d="M34.3,4.9c-0.5,0-0.9,0.4-0.9,0.9c0,0.5,0.4,0.9,0.9,0.9c0.4,0,0.7-0.3,0.8-0.7C35.3,5.4,34.8,4.9,34.3,4.9"/>
	<path class="st0" d="M31.8,5.7C31.8,5.3,31.4,5,31,5v1.7c0,0,0,0,0.1,0C31.5,6.6,31.9,6.2,31.8,5.7"/>
	<path class="st0" d="M50.2,4.2c0-0.6-0.5-1.1-1.1-1.1c-0.5,0-1,0.4-1,1.1c0,0.6,0.5,1.1,1.1,1C49.7,5.2,50.2,4.8,50.2,4.2"/>
	<path class="st0" d="M45.4,5.1c0.1,0.1,0.4,0.1,0.6,0.1c0.5-0.1,0.8-0.4,0.9-0.9c0.1-0.7-0.4-1.1-0.9-1.1c-0.6-0.1-1.2,0.4-1.1,1.1
		C44.8,4.7,45.1,5,45.4,5.1"/>
	<path class="st0" d="M42.6,5.1c0.5,0,0.9-0.4,0.9-1c0-0.5-0.4-1-1-1c-0.5,0-1,0.4-1,1C41.5,4.7,42,5.2,42.6,5.1"/>
	<path class="st0" d="M39.3,3.2c-0.8-0.1-1.4,0.8-0.9,1.5c0.1,0.2,0.5,0.4,0.9,0.4c0.4-0.1,0.8-0.4,0.8-0.9
		C40.2,3.7,39.8,3.3,39.3,3.2"/>
	<path class="st0" d="M35,4.2c0,0.5,0.4,0.9,1,0.8c0.5-0.1,0.8-0.4,0.8-0.8C36.9,2.9,34.9,3,35,4.2"/>
	<path class="st0" d="M32.5,3.3c-0.4,0-0.8,0.4-0.8,1c0,0.5,0.5,0.8,1,0.8c0.4-0.1,0.7-0.3,0.8-0.8C33.5,3.6,33,3.2,32.5,3.3"/>
	<path class="st0" d="M46.4,2.5c0,0.6,0.5,1.1,1.1,1c0.5,0,1-0.5,1-1c0-0.6-0.4-1-1-1C46.9,1.5,46.4,1.9,46.4,2.5"/>
	<path class="st0" d="M43.1,2.6c0.1,0.6,0.5,1,1.1,0.9c0.3,0,0.6-0.2,0.7-0.4c0-0.1,0.1-0.2,0.2-0.5c0-0.6-0.4-1-0.9-1.1
		C43.6,1.5,43.1,2,43.1,2.6"/>
	<path class="st0" d="M40,3.1c0.1,0.2,0.5,0.5,0.9,0.4c0.4-0.1,0.8-0.4,0.8-0.8c0.1-1.3-1.8-1.5-1.9-0.2C39.9,2.6,39.9,2.8,40,3.1"
		/>
	<path class="st0" d="M37.6,3.4c0.5,0,0.9-0.4,0.9-0.9c0-0.5-0.4-0.9-0.9-0.9c-0.5,0-0.9,0.4-0.9,0.9C36.6,3.1,37.1,3.5,37.6,3.4"/>
	<path class="st0" d="M34.3,3.4c0.4,0,0.7-0.3,0.8-0.7c0.1-0.6-0.3-1.1-0.9-1.1c-0.5,0-0.9,0.4-0.9,0.9C33.4,3.1,33.8,3.4,34.3,3.4"
		/>
	<path class="st0" d="M31.8,2.4c0-0.4-0.4-0.7-0.8-0.7v1.7c0,0,0,0,0.1,0C31.5,3.3,31.9,2.9,31.8,2.4"/>
	<path class="st0" d="M49.2,1.9c0.5,0,0.9-0.4,1-1h-2.1C48.1,1.5,48.6,2,49.2,1.9"/>
	<path class="st0" d="M45.4,1.8c0.1,0.1,0.4,0.1,0.6,0.1c0.5-0.1,0.8-0.4,0.9-0.9c0,0,0,0,0,0h-2c0,0,0,0,0,0.1
		C44.8,1.4,45.1,1.7,45.4,1.8"/>
	<path class="st0" d="M42.6,1.8c0.5,0,0.9-0.4,0.9-0.9h-2C41.6,1.5,42,1.9,42.6,1.8"/>
	<path class="st0" d="M39.3,1.8c0.4-0.1,0.8-0.4,0.8-0.9c0,0,0,0,0,0h-1.9c0,0.2,0.1,0.3,0.2,0.5C38.6,1.6,38.9,1.9,39.3,1.8"/>
	<path class="st0" d="M36,1.8c0.5-0.1,0.8-0.4,0.8-0.8l-1.8,0C35,1.4,35.4,1.8,36,1.8"/>
	<path class="st0" d="M32.7,1.7c0.4-0.1,0.7-0.3,0.8-0.8v0l-1.7,0v0C31.8,1.4,32.2,1.8,32.7,1.7"/>
	<path class="st0" d="M27.7,44.6c-0.4-0.1-0.7-0.2-1-0.4c0,0,0,0,0,0c0,0,0.1-0.2,0.1-0.3c0.1-0.9-1-1.1-1.4-0.5
		c-0.1,0.1-0.1,0.2-0.1,0.4c-1.3-0.6-2.5-1.2-3.5-1.9c-0.1-0.2-0.3-0.4-0.6-0.4c-0.4-0.2-0.7-0.5-1-0.8c0,0,0-0.1,0-0.1
		c0.1-0.6-0.5-0.9-1-0.7c-0.3-0.2-0.5-0.5-0.8-0.7c0-0.1,0.1-0.1,0.1-0.2c0-0.4-0.2-0.6-0.4-0.7c-0.2-0.1-0.4,0-0.6,0
		c-0.3-0.3-0.5-0.6-0.8-0.9c0.1-0.2,0-0.5-0.1-0.6c-0.1-0.1-0.3-0.2-0.5-0.2c-1.4-1.9-2.3-3.8-2.8-5.6c0,0,0.1-0.1,0.1-0.2
		c-0.1-0.2-0.2-0.5-0.3-0.7c0,0,0,0-0.1,0c-0.3-1.2-0.4-2.4-0.4-3.4V0.9H1v26.1c0,10.8,6.7,18.5,20.8,18.6c3.9,0,6.9-0.7,6.9-0.7
		c-0.2-0.1-0.4-0.1-0.6-0.2C28,44.6,27.8,44.6,27.7,44.6"/>
	<path class="st0" d="M32.5,42.9c-0.4,0-0.8,0.4-0.8,1c0,0,0,0.1,0,0.1c0.5-0.2,1.1-0.4,1.6-0.7C33.2,43,32.8,42.8,32.5,42.9"/>
	<path class="st0" d="M29.3,42.9c-0.4,0-0.8,0.3-0.8,0.8c0,0.5,0.4,0.9,0.9,0.8c0.4,0,0.8-0.4,0.8-0.8
		C30.1,43.3,29.8,42.9,29.3,42.9"/>
	<path class="st0" d="M34.3,41.2c-0.5,0-0.9,0.4-0.9,0.9c0,0.4,0.3,0.7,0.6,0.8c0.4-0.2,0.8-0.4,1.1-0.7
		C35.2,41.7,34.8,41.2,34.3,41.2"/>
	<path class="st0" d="M30.1,42c-0.1,0.6,0.4,1,1,0.9c0.4-0.1,0.8-0.4,0.7-1C31.7,41.1,30.2,41,30.1,42"/>
	<path class="st0" d="M27.8,42.9c0.6-0.1,1-0.9,0.5-1.4c-0.5-0.5-1.4-0.1-1.4,0.6C26.9,42.6,27.3,42.9,27.8,42.9"/>
	<path class="st0" d="M24.7,41.4c-0.7-0.3-1.4,0.4-1,1c0.1,0.2,0.4,0.4,0.8,0.4c0.3,0,0.5-0.3,0.6-0.4C25.3,42,25,41.6,24.7,41.4"/>
	<path class="st0" d="M35,40.5c0,0.5,0.4,0.9,1,0.8c0.5-0.1,0.8-0.4,0.8-0.8C36.9,39.2,34.9,39.2,35,40.5"/>
	<path class="st0" d="M32.7,41.3c0.4-0.1,0.7-0.3,0.8-0.8c0.1-0.6-0.5-1-1-0.9c-0.4,0-0.8,0.4-0.8,1C31.8,41,32.2,41.4,32.7,41.3"/>
	<path class="st0" d="M29.4,41.3c0.4,0,0.8-0.4,0.8-0.8c0-0.5-0.3-0.8-0.8-0.8c-0.4,0-0.8,0.3-0.8,0.8
		C28.5,40.9,28.9,41.3,29.4,41.3"/>
	<path class="st0" d="M26.1,41.2c0.3,0,0.4-0.2,0.5-0.3c0,0,0.1-0.2,0.1-0.3c0.1-0.9-1-1.1-1.4-0.5c-0.1,0.2-0.2,0.6,0,0.9
		C25.5,41,25.7,41.3,26.1,41.2"/>
	<path class="st0" d="M22.7,41.2c0.4,0,0.7-0.3,0.7-0.6c0.1-0.6-0.4-1-0.9-0.9c-0.3,0.1-0.7,0.4-0.6,0.9
		C22,40.9,22.4,41.2,22.7,41.2"/>
	<path class="st0" d="M37.6,37.9c-0.5,0-0.9,0.4-0.9,0.9c0,0.5,0.5,1,1,0.9c0.5,0,0.9-0.4,0.9-0.9C38.5,38.3,38.1,37.9,37.6,37.9"/>
	<path class="st0" d="M34.3,39.7c0.4,0,0.7-0.3,0.8-0.7c0.1-0.6-0.3-1.1-0.9-1.1c-0.5,0-0.9,0.4-0.9,0.9
		C33.4,39.3,33.8,39.7,34.3,39.7"/>
	<path class="st0" d="M31.1,39.6c0.4-0.1,0.8-0.4,0.7-0.9c-0.1-0.9-1.6-1-1.7,0C30.1,39.3,30.5,39.7,31.1,39.6"/>
	<path class="st0" d="M27.8,39.6c0.6-0.1,1-0.9,0.5-1.4c-0.5-0.5-1.4-0.1-1.4,0.6C26.9,39.3,27.3,39.6,27.8,39.6"/>
	<path class="st0" d="M24.7,38.1c-0.7-0.3-1.4,0.4-1,1c0.1,0.2,0.4,0.4,0.8,0.4c0.3,0,0.5-0.3,0.6-0.4C25.3,38.7,25,38.3,24.7,38.1"
		/>
	<path class="st0" d="M20.9,38.1c-0.3,0-0.5,0.3-0.6,0.6c-0.1,0.5,0.3,0.9,0.8,0.8c0.3,0,0.5-0.3,0.6-0.6
		C21.8,38.4,21.4,38,20.9,38.1"/>
	<path class="st0" d="M39.3,36.2c-0.8-0.1-1.4,0.8-0.9,1.5c0.1,0.2,0.5,0.5,0.9,0.4c0,0,0.1,0,0.1,0c0.3-0.4,0.5-0.7,0.7-1.1
		C40,36.5,39.7,36.2,39.3,36.2"/>
	<path class="st0" d="M36,38c0.5-0.1,0.8-0.4,0.8-0.8c0.1-1.3-1.9-1.3-1.8,0C35,37.7,35.4,38.1,36,38"/>
	<path class="st0" d="M32.5,36.3c-0.4,0-0.8,0.4-0.8,1c0,0.5,0.5,0.8,1,0.8c0.4-0.1,0.7-0.3,0.8-0.8C33.5,36.6,33,36.2,32.5,36.3"/>
	<path class="st0" d="M29.4,38c0.4,0,0.8-0.4,0.8-0.8c0-0.5-0.3-0.8-0.8-0.8c-0.4,0-0.8,0.3-0.8,0.8C28.5,37.6,28.9,38,29.4,38"/>
	<path class="st0" d="M26.1,37.9c0.3,0,0.4-0.2,0.5-0.3c0,0,0.1-0.2,0.1-0.3c0.1-0.9-1-1.1-1.4-0.5c-0.1,0.2-0.2,0.6,0,0.9
		C25.5,37.7,25.7,38,26.1,37.9"/>
	<path class="st0" d="M22.7,37.9c0.4,0,0.7-0.3,0.7-0.6c0.1-0.5-0.4-1-0.9-0.9c-0.3,0.1-0.7,0.4-0.6,0.9
		C22,37.6,22.4,37.9,22.7,37.9"/>
	<path class="st0" d="M19.5,37.8c0.2,0,0.3-0.1,0.4-0.2c0.1-0.1,0.2-0.2,0.2-0.4c0.1-0.7-0.7-1-1.1-0.6c-0.3,0.3-0.2,0.7,0,1
		C19,37.7,19.2,37.8,19.5,37.8"/>
	<path class="st0" d="M40,35.1c0,0.3,0,0.5,0.2,0.7c0.1,0.1,0.2,0.2,0.4,0.3c0.3-0.6,0.6-1.1,0.8-1.7C40.8,34.2,40.1,34.4,40,35.1"
		/>
	<path class="st0" d="M37.6,36.4c0.5,0,0.9-0.4,0.9-0.9c0-0.5-0.4-0.9-0.9-0.9c-0.5,0-0.9,0.4-0.9,0.9C36.6,36,37.1,36.5,37.6,36.4"
		/>
	<path class="st0" d="M34.3,36.4c0.4,0,0.7-0.3,0.8-0.7c0.1-0.6-0.3-1.1-0.9-1.1c-0.5,0-0.9,0.4-0.9,0.9
		C33.4,36,33.8,36.4,34.3,36.4"/>
	<path class="st0" d="M30.1,35.4c-0.1,0.6,0.4,1,1,0.9c0.4-0.1,0.8-0.4,0.7-1C31.7,34.5,30.2,34.4,30.1,35.4"/>
	<path class="st0" d="M27.8,36.3c0.6-0.1,1-0.9,0.5-1.4c-0.5-0.5-1.4-0.1-1.4,0.6C26.9,36,27.3,36.3,27.8,36.3"/>
	<path class="st0" d="M24.5,36.2c0.3,0,0.5-0.3,0.6-0.4c0.1-0.2,0.1-0.5,0-0.6c-0.5,0.1-1,0.2-1.5,0.3c0,0.1,0,0.2,0.1,0.3
		C23.8,36.1,24.1,36.3,24.5,36.2"/>
	<path class="st0" d="M21.2,36.2c0.3-0.1,0.5-0.3,0.6-0.5c-0.5,0-1,0-1.4-0.1C20.4,36,20.8,36.3,21.2,36.2"/>
	<path class="st0" d="M17.9,36.1c0.3,0,0.5-0.2,0.5-0.5c0-0.2,0-0.3-0.1-0.5c-0.3-0.1-0.5-0.2-0.7-0.3c-0.2,0.1-0.3,0.2-0.4,0.4
		C16.9,35.8,17.4,36.2,17.9,36.1"/>
	<path class="st0" d="M39.3,34.8c0.4-0.1,0.8-0.4,0.8-0.9c0-0.6-0.4-1-0.9-1c-0.8-0.1-1.4,0.8-0.9,1.5
		C38.6,34.6,38.9,34.8,39.3,34.8"/>
	<path class="st0" d="M36,34.7c0.5-0.1,0.8-0.4,0.8-0.8c0.1-1.3-1.9-1.3-1.8,0C35,34.4,35.4,34.8,36,34.7"/>
	<path class="st0" d="M32.7,34.7c0.4-0.1,0.7-0.3,0.8-0.8c0.1-0.6-0.5-1-1-0.9c-0.4,0-0.8,0.4-0.8,1C31.8,34.4,32.2,34.8,32.7,34.7"
		/>
	<path class="st0" d="M29.4,34.7c0.4,0,0.8-0.4,0.8-0.8c0-0.5-0.3-0.8-0.8-0.8c-0.4,0-0.8,0.3-0.8,0.8
		C28.5,34.3,28.9,34.7,29.4,34.7"/>
	<path class="st0" d="M16.2,34.4c0.1,0,0.2-0.1,0.3-0.1c-0.3-0.2-0.7-0.4-1-0.7C15.4,34.1,15.7,34.5,16.2,34.4"/>
	<path class="st0" d="M39.9,32.1c0,0.3,0,0.5,0.2,0.7c0.1,0.2,0.5,0.5,0.9,0.4c0.4-0.1,0.8-0.4,0.8-0.8C41.9,31,40,30.9,39.9,32.1"
		/>
	<path class="st0" d="M37.6,33.1c0.5,0,0.9-0.4,0.9-0.9c0-0.5-0.4-0.9-0.9-0.9c-0.5,0-0.9,0.4-0.9,0.9
		C36.6,32.7,37.1,33.2,37.6,33.1"/>
	<path class="st0" d="M34.3,33.1c0.4,0,0.7-0.3,0.8-0.7c0.1-0.6-0.3-1.1-0.9-1.1c-0.5,0-0.9,0.4-0.9,0.9
		C33.4,32.7,33.8,33.1,34.3,33.1"/>
	<path class="st0" d="M31.1,33c0.4-0.1,0.8-0.4,0.7-0.9c-0.1-0.9-1.6-1-1.7,0C30.1,32.7,30.5,33.1,31.1,33"/>
	<path class="st0" d="M14.6,32.8c-0.2-0.3-0.4-0.5-0.6-0.8c-0.1,0.1-0.1,0.2-0.1,0.4C13.9,32.6,14.2,32.8,14.6,32.8"/>
	<path class="st0" d="M41.5,30.6c0,0.4,0.2,0.7,0.6,0.9c0.1-0.6,0.2-1.2,0.3-1.9C41.9,29.6,41.5,30,41.5,30.6"/>
	<path class="st0" d="M39.3,29.6c-0.8-0.1-1.4,0.8-0.9,1.5c0.1,0.2,0.5,0.5,0.9,0.4c0.4-0.1,0.8-0.4,0.8-0.9
		C40.2,30.1,39.8,29.6,39.3,29.6"/>
	<path class="st0" d="M35,30.6c0,0.5,0.4,0.9,1,0.8c0.5-0.1,0.8-0.4,0.8-0.8C36.9,29.3,34.9,29.3,35,30.6"/>
	<path class="st0" d="M32.7,31.4c0.4-0.1,0.7-0.3,0.8-0.8c0.1-0.6-0.5-1-1-1c-0.4,0-0.8,0.4-0.8,1C31.8,31.1,32.2,31.5,32.7,31.4"/>
	<path class="st0" d="M41,29.8c0.4-0.1,0.8-0.4,0.8-0.8c0.1-1.3-1.8-1.5-1.9-0.2c0,0.3,0,0.5,0.2,0.7C40.2,29.7,40.5,29.9,41,29.8"
		/>
	<path class="st0" d="M37.6,28c-0.5,0-0.9,0.4-0.9,0.9c0,0.5,0.5,1,1,0.9c0.5,0,0.9-0.4,0.9-0.9C38.5,28.4,38.1,28,37.6,28"/>
	<path class="st0" d="M34.3,29.8c0.4,0,0.7-0.3,0.8-0.7c0.1-0.6-0.3-1.1-0.9-1.1c-0.5,0-0.9,0.4-0.9,0.9
		C33.4,29.4,33.8,29.8,34.3,29.8"/>
	<path class="st0" d="M31.1,29.7c0.4-0.1,0.8-0.4,0.7-0.9c-0.1-0.5-0.5-0.7-0.8-0.7c-0.1,0.6-0.2,1.1-0.3,1.6
		C30.8,29.7,30.9,29.7,31.1,29.7"/>
	<path class="st0" d="M41.5,27.3c0,0.5,0.4,0.9,0.9,1c0-0.4,0-0.8,0-1.2v-0.8c0,0,0,0,0,0C42,26.3,41.5,26.7,41.5,27.3"/>
	<path class="st0" d="M39.3,28.2c0.4-0.1,0.8-0.4,0.8-0.9c0-0.6-0.4-1-0.9-1c-0.8-0.1-1.4,0.8-0.9,1.5C38.6,28,38.9,28.2,39.3,28.2"
		/>
	<path class="st0" d="M35,27.3c0,0.5,0.4,0.9,1,0.8c0.5-0.1,0.8-0.4,0.8-0.8C36.9,26,34.9,26,35,27.3"/>
	<path class="st0" d="M32.7,28.1c0.4-0.1,0.7-0.3,0.8-0.8c0.1-0.6-0.5-1-1-0.9c-0.4,0-0.8,0.4-0.8,1C31.8,27.8,32.2,28.2,32.7,28.1"
		/>
	<path class="st0" d="M41.8,25.7c0.1-1.3-1.8-1.5-1.9-0.2c0,0.3,0,0.5,0.2,0.7c0.1,0.2,0.5,0.5,0.9,0.4
		C41.4,26.5,41.8,26.2,41.8,25.7"/>
	<path class="st0" d="M37.6,26.5c0.5,0,0.9-0.4,0.9-0.9c0-0.5-0.4-0.9-0.9-0.9c-0.5,0-0.9,0.4-0.9,0.9
		C36.6,26.1,37.1,26.6,37.6,26.5"/>
	<path class="st0" d="M34.3,26.5c0.4,0,0.7-0.3,0.8-0.7c0.1-0.6-0.3-1.1-0.9-1.1c-0.5,0-0.9,0.4-0.9,0.9
		C33.4,26.1,33.8,26.5,34.3,26.5"/>
	<path class="st0" d="M31.8,25.5c0-0.4-0.4-0.7-0.8-0.7v1.7c0,0,0,0,0.1,0C31.5,26.4,31.9,26,31.8,25.5"/>
	<path class="st0" d="M41.5,24c0,0.5,0.4,1,1,1v-2h0C42,23,41.5,23.4,41.5,24"/>
	<path class="st0" d="M39.3,23c-0.8-0.1-1.4,0.8-0.9,1.5c0.1,0.2,0.5,0.5,0.9,0.4c0.4-0.1,0.8-0.4,0.8-0.9
		C40.2,23.5,39.8,23,39.3,23"/>
	<path class="st0" d="M35.1,24.4C35.1,24.4,35.1,24.4,35.1,24.4c0.2,0.3,0.5,0.5,0.9,0.4c0.4-0.1,0.7-0.3,0.8-0.8c0,0,0,0,0-0.1
		c0,0,0,0,0,0c0-0.5-0.2-0.8-0.5-0.9c-0.1,0-0.2-0.1-0.3-0.1c-0.1,0-0.3,0-0.4,0.1C35.2,23.2,35,23.5,35,24
		C35,24.1,35,24.3,35.1,24.4"/>
	<path class="st0" d="M32.7,24.8c0.4,0,0.7-0.3,0.7-0.7c0,0,0,0,0,0c0,0,0,0,0,0c0,0,0,0,0,0v0c0-0.6-0.5-0.9-1-0.9
		c-0.4,0-0.8,0.4-0.8,1C31.8,24.5,32.2,24.9,32.7,24.8"/>
	<path class="st0" d="M84.1,23.1c-0.4,0-0.8,0.3-0.8,0.7c0,0,0,0,0,0.1c0,0,0,0,0,0v0c0,0,0,0.1,0,0.1c0.1,0.4,0.4,0.6,0.7,0.7
		c0.3,0,0.6-0.1,0.8-0.4c0,0,0,0,0,0c0,0,0-0.1,0.1-0.1l0,0c0-0.1,0.1-0.2,0.1-0.3C84.9,23.4,84.5,23.1,84.1,23.1"/>
	<path class="st0" d="M65.1,21.7c-0.1,0.2-0.2,0.4-0.2,0.6c0,0.3,0.1,0.6,0.3,0.7c0,0,0,0,0,0c0,0,0,0,0,0c0.2,0.2,0.4,0.2,0.6,0.3
		c0.1,0,0.2,0,0.2,0c0,0,0.1,0,0.1,0c0,0,0,0,0,0c0.4-0.1,0.7-0.5,0.7-1c0-0.6-0.5-1-1-1c-0.3,0-0.6,0.1-0.8,0.3
		C65.1,21.6,65.1,21.7,65.1,21.7"/>
	<path class="st0" d="M69.1,23.3c0.1,0,0.3,0,0.4,0c0.4-0.1,0.7-0.4,0.7-0.9c0-0.2,0-0.3-0.1-0.5c0,0,0,0,0,0c0,0,0-0.1-0.1-0.1
		c0,0,0,0,0,0c-0.2-0.3-0.5-0.5-0.9-0.5c-0.5,0-1,0.4-0.9,1.1c0,0.2,0.1,0.4,0.2,0.5c0.1,0.1,0.2,0.3,0.4,0.3
		C68.9,23.3,69,23.3,69.1,23.3"/>
	<path class="st0" d="M73.3,22.9c0.1-0.2,0.2-0.4,0.2-0.7c-0.1-0.9-1.1-1-1.6-0.6c-0.1,0-0.1,0.1-0.2,0.2c-0.1,0.1-0.2,0.3-0.2,0.5
		v0c0,0.1,0,0.1,0,0.2c0,0.4,0.4,0.8,0.8,0.8C72.9,23.3,73.2,23.1,73.3,22.9"/>
	<path class="st0" d="M76.8,22.5c0-0.2,0-0.4,0-0.6c0,0,0-0.1-0.1-0.1c0-0.1-0.1-0.2-0.2-0.3c-0.2-0.1-0.4-0.2-0.6-0.2
		c-0.2,0-0.4,0.1-0.6,0.2c-0.1,0.1-0.2,0.2-0.2,0.3c-0.1,0.1-0.1,0.3-0.1,0.4c0,0,0,0,0,0v0v0c0,0,0,0.1,0,0.1c0,0,0,0.1,0,0.1
		c0,0,0,0.1,0,0.1c0,0,0,0.1,0,0.1c0,0,0,0.1,0.1,0.1c0,0,0,0,0,0c0,0,0.1,0.1,0.1,0.1c0,0,0,0,0,0c0.2,0.2,0.4,0.3,0.6,0.3
		C76.3,23.3,76.7,22.9,76.8,22.5"/>
	<path class="st0" d="M78.3,22.5C78.3,22.5,78.3,22.5,78.3,22.5c0,0.1,0,0.1,0,0.1c0,0,0,0,0,0c0,0,0,0.1,0,0.1
		c0,0.1,0.1,0.2,0.2,0.2c0,0,0,0,0,0c0,0,0.1,0,0.1,0.1c0,0,0,0,0.1,0c0,0,0,0,0.1,0c0,0,0.1,0,0.1,0h0c0.1,0,0.1,0,0.2,0
		c0.4,0,0.8-0.2,0.9-0.6c0,0,0,0,0,0c0,0,0,0,0-0.1c0,0,0,0,0-0.1c0,0,0,0,0,0c0-0.1,0-0.2,0-0.3c0,0,0,0,0,0c0,0,0,0,0,0
		c0,0,0-0.1,0-0.1c0-0.1,0-0.1-0.1-0.2c-0.1-0.1-0.2-0.2-0.3-0.3c-0.1-0.1-0.3-0.2-0.5-0.2c-0.2,0-0.4,0.1-0.5,0.2
		c-0.1,0-0.2,0.2-0.3,0.3c-0.1,0.1-0.1,0.3-0.1,0.4c0,0,0,0,0,0v0C78.2,22.3,78.2,22.4,78.3,22.5C78.3,22.5,78.3,22.5,78.3,22.5"/>
	<path class="st0" d="M82,23c0.1,0.1,0.2,0.1,0.4,0.1c0.2,0,0.5,0,0.6-0.1c0,0,0,0,0,0c0,0,0,0,0,0c0.2-0.1,0.3-0.4,0.3-0.7
		c0,0,0-0.1,0-0.1c0-0.1,0-0.1,0-0.1c0,0,0,0,0-0.1c0,0,0,0,0,0c-0.1-0.2-0.2-0.3-0.4-0.4c0,0,0,0,0,0c0,0,0,0,0,0
		c-0.2-0.1-0.5-0.1-0.7,0c0,0,0,0,0,0c-0.1,0-0.3,0.2-0.3,0.3c0,0.1-0.1,0.1-0.1,0.2c0,0,0,0.1,0,0.1v0C81.5,22.6,81.7,22.8,82,23"
		/>
	<path class="st0" d="M86,21.5L86,21.5c-0.2-0.1-0.4-0.1-0.6,0h0c0,0,0,0,0,0c0,0,0,0,0,0c0,0-0.1,0-0.1,0.1c0,0,0,0,0,0
		c0,0-0.1,0-0.1,0.1c0,0,0,0,0,0c0,0,0,0,0,0c0,0,0,0-0.1,0.1c-0.2,0.2-0.2,0.5-0.1,0.8c0.1,0.3,0.3,0.5,0.7,0.5
		c0.2,0,0.3,0,0.5-0.1c0,0,0.1,0,0.1-0.1c0.1-0.2,0.2-0.4,0.3-0.6c0-0.1,0-0.3-0.1-0.4C86.4,21.8,86.2,21.6,86,21.5"/>
	<path class="st0" d="M66.6,20.8c0,0.4,0.3,0.7,0.6,0.8c0.1,0,0.2,0.1,0.3,0.1c0.2,0,0.4,0,0.6-0.1c0.3-0.1,0.5-0.4,0.6-0.8
		c0-0.2,0-0.4-0.1-0.6h-1.9C66.6,20.4,66.6,20.6,66.6,20.8"/>
	<path class="st0" d="M71.9,20.7c0-0.2,0-0.3-0.1-0.5c-0.2,0-0.5,0-0.7,0H70c-0.1,0.1-0.1,0.3-0.1,0.4c0,0.4,0.2,0.8,0.6,0.9
		c0.1,0.1,0.2,0.1,0.4,0.1c0,0,0,0,0,0c0,0,0,0,0.1,0c0,0,0,0,0,0c0.1,0,0.2,0,0.2-0.1c0,0,0,0,0,0C71.6,21.4,71.9,21.1,71.9,20.7"
		/>
	<path class="st0" d="M74.1,19.7c-0.5,0-0.9,0.5-0.9,1c0,0.4,0.3,0.7,0.7,0.8c0.1,0.1,0.4,0,0.5,0c0,0,0,0,0,0
		c0.2-0.1,0.4-0.2,0.5-0.4C75.4,20.5,74.9,19.6,74.1,19.7"/>
	<path class="st0" d="M78.4,20.7c0.1-1.3-1.9-1.3-1.8,0c0,0.5,0.3,0.8,0.8,0.8h0c0,0,0.1,0,0.2,0c0,0,0,0,0,0
		C78.1,21.5,78.4,21.1,78.4,20.7"/>
	<path class="st0" d="M80.7,21.5c0.5,0.1,0.9-0.3,1-0.8c0.1-0.6-0.4-0.9-0.8-1c-0.5-0.1-1,0.3-1,0.9C79.9,21.2,80.3,21.5,80.7,21.5"
		/>
	<path class="st0" d="M84.1,19.8c-0.5,0-0.8,0.4-0.8,0.8c0,0.4,0.3,0.8,0.8,0.8c0.5,0,0.9-0.3,0.9-0.8
		C84.9,20.1,84.5,19.8,84.1,19.8"/>
	<path class="st0" d="M86.6,20.7c0,0.2,0.1,0.3,0.1,0.3c0.1,0.1,0.1,0.2,0.3,0.2c0.2-0.5,0.3-0.9,0.5-1.4
		C87,19.9,86.5,20.2,86.6,20.7"/>
	<path class="st0" d="M75.8,19.9c0.5,0,1-0.4,1-0.9c0-0.6-0.5-0.9-0.9-0.9c0,0,0,0-0.1,0c-0.2,0.4-0.5,0.7-0.9,0.9
		C74.9,19.5,75.3,19.9,75.8,19.9"/>
	<path class="st0" d="M79.1,19.9c0.5,0,0.9-0.3,0.9-0.9c0-0.5-0.4-0.9-0.9-0.9c-0.6,0-1,0.5-0.9,1.1C78.3,19.6,78.7,19.9,79.1,19.9"
		/>
	<path class="st0" d="M81.6,18.9c-0.1,0.5,0.3,0.9,0.7,0.9c0.6,0.1,1-0.3,1-0.9C83.2,17.9,81.7,18,81.6,18.9"/>
	<path class="st0" d="M85.2,18.4c-0.5,0.5-0.2,1.3,0.5,1.4c0.5,0.1,0.9-0.3,0.9-0.8C86.6,18.3,85.7,17.9,85.2,18.4"/>
	<path class="st0" d="M77.4,18.3c0.6,0.1,1-0.4,1-0.8c0.1-1.3-1.9-1.3-1.8,0C76.6,17.9,76.9,18.2,77.4,18.3"/>
	<path class="st0" d="M80.9,16.5c-0.5-0.1-1,0.3-1,0.9c0,0.4,0.4,0.7,0.8,0.8c0.5,0.1,0.9-0.3,1-0.8C81.7,16.9,81.3,16.5,80.9,16.5"
		/>
	<path class="st0" d="M84.1,16.5c-0.5,0-0.8,0.4-0.8,0.8c0,0.4,0.3,0.8,0.8,0.8c0.5,0,0.9-0.3,0.9-0.8
		C84.9,16.8,84.5,16.5,84.1,16.5"/>
	<path class="st0" d="M86.6,17.4c0,0.2,0.1,0.3,0.1,0.3c0.1,0.1,0.3,0.3,0.5,0.3c0.3,0,0.5,0,0.6-0.2c0.1-0.4,0.1-0.7,0.1-1.1
		C87.6,16.3,86.5,16.6,86.6,17.4"/>
	<path class="st0" d="M76.8,15.7c0-0.3-0.1-0.5-0.3-0.7c0,0.2,0,0.3,0,0.5c0,0,0,0,0,0c0,0.3,0,0.6-0.1,0.9
		C76.6,16.2,76.8,16,76.8,15.7"/>
	<path class="st0" d="M79.1,14.8c-0.6,0-1,0.5-0.9,1.1c0.1,0.4,0.4,0.6,0.8,0.7c0.5,0,0.9-0.3,0.9-0.9C80,15.2,79.6,14.8,79.1,14.8"
		/>
	<path class="st0" d="M81.6,15.6c-0.1,0.5,0.3,0.9,0.7,0.9c0.6,0.1,1-0.3,1-0.9C83.2,14.6,81.7,14.7,81.6,15.6"/>
	<path class="st0" d="M85.2,15.1c-0.5,0.5-0.2,1.3,0.5,1.4c0.5,0.1,0.9-0.3,0.9-0.8C86.6,15,85.7,14.6,85.2,15.1"/>
	<path class="st0" d="M77.4,15c0.6,0.1,1-0.4,1-0.8c0.1-1.3-1.9-1.3-1.8,0C76.6,14.6,76.9,14.9,77.4,15"/>
	<path class="st0" d="M80.9,13.2c-0.5-0.1-1,0.3-1,0.9c0,0.4,0.4,0.7,0.8,0.8c0.5,0.1,0.9-0.3,1-0.8C81.7,13.6,81.3,13.2,80.9,13.2"
		/>
	<path class="st0" d="M84.1,13.2c-0.5,0-0.8,0.4-0.8,0.8c0,0.4,0.3,0.8,0.8,0.8c0.5,0,0.9-0.3,0.9-0.8
		C84.9,13.5,84.5,13.2,84.1,13.2"/>
	<path class="st0" d="M87.3,14.8c0.4,0.1,0.6-0.1,0.7-0.3c0-0.4-0.1-0.7-0.1-1c-0.5-0.4-1.4-0.1-1.3,0.7c0,0.2,0.1,0.3,0.1,0.3
		C86.8,14.6,87,14.8,87.3,14.8"/>
	<path class="st0" d="M75.8,11.5c-0.4,0-0.7,0.3-0.9,0.6c0.4,0.3,0.8,0.8,1,1.2c0.4-0.1,0.8-0.4,0.8-0.9
		C76.8,11.8,76.3,11.5,75.8,11.5"/>
	<path class="st0" d="M79.1,11.5c-0.6,0-1,0.5-0.9,1.1c0.1,0.4,0.4,0.6,0.8,0.7c0.5,0,0.9-0.3,0.9-0.9C80,11.9,79.6,11.5,79.1,11.5"
		/>
	<path class="st0" d="M81.6,12.3c-0.1,0.5,0.3,0.9,0.7,0.9c0.6,0.1,1-0.3,1-0.9C83.2,11.3,81.7,11.4,81.6,12.3"/>
	<path class="st0" d="M85.2,11.8c-0.5,0.5-0.2,1.3,0.5,1.4c0.5,0.1,0.9-0.3,0.9-0.8C86.6,11.7,85.7,11.3,85.2,11.8"/>
	<path class="st0" d="M63.2,10.8C63.2,10.8,63.2,10.8,63.2,10.8l2.1,0c0,0,0,0,0,0c0-0.6-0.5-1-1-1.1C63.7,9.7,63.2,10.2,63.2,10.8"
		/>
	<path class="st0" d="M67.5,9.7c-0.5,0-0.9,0.4-0.9,1.1h2C68.6,10.1,68.1,9.7,67.5,9.7"/>
	<path class="st0" d="M70.9,9.8c-0.6,0-1,0.4-1,1c0,0,0,0,0,0.1h1.2c0.3,0,0.5,0,0.8,0c0,0,0-0.1,0-0.1C71.9,10.2,71.4,9.8,70.9,9.8
		"/>
	<path class="st0" d="M74.1,9.8c-0.5,0-0.9,0.5-0.9,1c0,0.1,0,0.2,0.1,0.3c0.4,0.1,0.7,0.3,1.1,0.5c0.3-0.1,0.5-0.2,0.6-0.4
		C75.4,10.6,74.9,9.7,74.1,9.8"/>
	<path class="st0" d="M76.6,10.8c0,0.5,0.3,0.8,0.8,0.8c0.6,0.1,1-0.4,1-0.8C78.5,9.6,76.5,9.5,76.6,10.8"/>
	<path class="st0" d="M80.9,9.9c-0.5-0.1-1,0.3-1,0.9c0,0.4,0.4,0.7,0.8,0.8c0.5,0.1,0.9-0.3,1-0.8C81.7,10.3,81.3,9.9,80.9,9.9"/>
	<path class="st0" d="M84.1,9.9c-0.5,0-0.8,0.4-0.8,0.8c0,0.4,0.3,0.8,0.8,0.8c0.5,0,0.9-0.3,0.9-0.8C84.9,10.2,84.5,9.9,84.1,9.9"
		/>
	<path class="st0" d="M87.3,11.5c0.1,0,0.2,0,0.3,0c-0.1-0.5-0.3-1-0.5-1.5c-0.3,0.1-0.5,0.4-0.5,0.8c0,0.2,0.1,0.3,0.1,0.3
		C86.8,11.3,87,11.5,87.3,11.5"/>
	<path class="st0" d="M64.9,9.1c0,0.6,0.4,1,1,1c0.6,0.1,1.1-0.4,1.1-1c0-0.6-0.5-1-1-1C65.3,8.1,64.9,8.5,64.9,9.1"/>
	<path class="st0" d="M68.2,9.2c0,0.2,0.1,0.4,0.2,0.5c0.1,0.2,0.4,0.4,0.7,0.4c0.6,0.1,1.1-0.3,1.1-0.9c0.1-0.6-0.4-1.1-1.1-1.1
		C68.7,8.1,68.2,8.5,68.2,9.2"/>
	<path class="st0" d="M71.6,9.2c0,0.4,0.4,0.8,0.8,0.8c0.5,0.1,0.8-0.2,1-0.4c0.1-0.2,0.2-0.4,0.2-0.7C73.4,7.8,71.4,7.9,71.6,9.2"
		/>
	<path class="st0" d="M75.8,8.2c-0.5,0-0.9,0.4-0.9,0.9c0,0.5,0.4,0.9,0.9,0.9c0.5,0,1-0.4,1-0.9C76.8,8.5,76.3,8.2,75.8,8.2"/>
	<path class="st0" d="M79.1,8.2c-0.6,0-1,0.5-0.9,1.1c0.1,0.4,0.4,0.6,0.8,0.7c0.5,0,0.9-0.3,0.9-0.9C80,8.6,79.6,8.2,79.1,8.2"/>
	<path class="st0" d="M81.6,9c-0.1,0.5,0.3,0.9,0.7,0.9c0.6,0.1,1-0.3,1-0.9C83.2,8,81.7,8.1,81.6,9"/>
	<path class="st0" d="M85.2,8.5C84.7,9,85,9.8,85.6,9.9c0.5,0.1,0.9-0.3,0.9-0.8C86.6,8.4,85.7,8,85.2,8.5"/>
	<path class="st0" d="M63.2,7.5c0,0.6,0.4,1,1,1c0.6,0.1,1.1-0.5,1.1-1c0-0.6-0.5-1-1-1.1C63.7,6.4,63.2,6.9,63.2,7.5"/>
	<path class="st0" d="M67.5,6.4c-0.5,0.1-1,0.5-0.9,1.1c0,0.5,0.4,0.8,0.9,0.9c0.2,0,0.5,0,0.6-0.1c0.3-0.1,0.5-0.4,0.6-0.8
		C68.7,6.8,68.1,6.4,67.5,6.4"/>
	<path class="st0" d="M70.9,6.5c-0.6,0-1,0.4-1,1c0,0.5,0.4,1,0.9,1c0.6,0,1-0.4,1.1-1C71.9,6.9,71.4,6.5,70.9,6.5"/>
	<path class="st0" d="M74.1,6.5c-0.5,0-0.9,0.5-0.9,1c0,0.5,0.4,0.8,0.8,0.9C74.5,8.5,74.8,8.2,75,8C75.4,7.3,74.9,6.4,74.1,6.5"/>
	<path class="st0" d="M76.6,7.5c0,0.5,0.3,0.8,0.8,0.8c0.6,0.1,1-0.4,1-0.8C78.5,6.3,76.5,6.2,76.6,7.5"/>
	<path class="st0" d="M80.9,6.6c-0.5,0-1,0.3-1,1c0,0.4,0.4,0.7,0.8,0.8c0.5,0.1,0.9-0.3,1-0.8C81.7,7,81.3,6.6,80.9,6.6"/>
	<path class="st0" d="M84.1,6.6c-0.5,0-0.8,0.4-0.8,0.8c0,0.4,0.3,0.8,0.8,0.8c0.5,0.1,0.9-0.3,0.9-0.8C84.9,7,84.5,6.6,84.1,6.6"/>
	<path class="st0" d="M64.9,5.8c0,0.6,0.4,1,1,1c0.6,0.1,1.1-0.4,1.1-1c0-0.6-0.5-1-1-1C65.3,4.8,64.9,5.2,64.9,5.8"/>
	<path class="st0" d="M68.2,5.9c0,0.2,0.1,0.4,0.2,0.5c0.1,0.2,0.4,0.4,0.7,0.4c0.6,0.1,1.1-0.3,1.1-0.9c0.1-0.6-0.4-1.1-1.1-1.1
		C68.7,4.8,68.2,5.2,68.2,5.9"/>
	<path class="st0" d="M71.6,5.9c0,0.4,0.4,0.8,0.8,0.8c0.5,0.1,0.8-0.2,1-0.4c0.1-0.2,0.2-0.4,0.2-0.7C73.4,4.5,71.4,4.6,71.6,5.9"
		/>
	<path class="st0" d="M75.8,4.9c-0.5,0-0.9,0.4-0.9,0.9c0,0.5,0.4,0.9,0.9,0.9c0.5,0,1-0.4,1-0.9C76.8,5.2,76.3,4.9,75.8,4.9"/>
	<path class="st0" d="M79.1,4.9c-0.6,0-1,0.5-0.9,1.1c0.1,0.4,0.4,0.6,0.8,0.7c0.5,0,0.9-0.3,0.9-0.9C80,5.3,79.6,4.9,79.1,4.9"/>
	<path class="st0" d="M82.3,6.6c0.6,0.1,1-0.3,1-0.9c-0.1-1-1.6-0.9-1.7,0C81.5,6.2,81.9,6.6,82.3,6.6"/>
	<path class="st0" d="M64.3,3.1c-0.6,0-1.1,0.5-1.1,1.1c0,0.6,0.4,1,1,1c0.6,0.1,1.1-0.5,1.1-1C65.3,3.5,64.8,3.1,64.3,3.1"/>
	<path class="st0" d="M67.5,3.1c-0.5,0.1-1,0.5-0.9,1.1c0,0.5,0.4,0.8,0.9,0.9c0.2,0,0.5,0,0.6-0.1c0.3-0.1,0.5-0.4,0.6-0.8
		C68.7,3.6,68.1,3.1,67.5,3.1"/>
	<path class="st0" d="M70.9,3.2c-0.6,0-1,0.4-1,1c0,0.6,0.4,0.9,0.9,1c0.6,0,1-0.4,1.1-1C71.9,3.6,71.4,3.2,70.9,3.2"/>
	<path class="st0" d="M74.1,3.2c-0.5,0-0.9,0.5-0.9,1c0,0.5,0.4,0.8,0.8,0.9c0.4,0.1,0.8-0.2,0.9-0.4C75.4,4,74.9,3.1,74.1,3.2"/>
	<path class="st0" d="M76.6,4.2c0,0.5,0.3,0.8,0.8,0.8c0.6,0.1,1-0.4,1-0.8C78.5,3,76.5,2.9,76.6,4.2"/>
	<path class="st0" d="M80.7,5c0.5,0.1,0.9-0.3,1-0.8c0.1-0.6-0.4-0.9-0.8-1c-0.5-0.1-1,0.3-1,0.9C79.9,4.7,80.3,5,80.7,5"/>
	<path class="st0" d="M64.9,2.5c0,0.6,0.4,1,1,1c0.6,0.1,1.1-0.4,1.1-1c0-0.6-0.5-1-1-1C65.3,1.5,64.9,1.9,64.9,2.5"/>
	<path class="st0" d="M68.2,2.6c0,0.2,0.1,0.4,0.2,0.5c0.1,0.2,0.4,0.4,0.7,0.4c0.6,0.1,1.1-0.3,1.1-0.9c0.1-0.6-0.4-1.1-1.1-1.1
		C68.7,1.5,68.2,1.9,68.2,2.6"/>
	<path class="st0" d="M71.6,2.6c0,0.4,0.4,0.8,0.8,0.8c0.5,0.1,0.8-0.2,1-0.4c0.1-0.2,0.2-0.4,0.2-0.7C73.4,1.2,71.4,1.3,71.6,2.6"
		/>
	<path class="st0" d="M75.8,3.4c0.5,0,1-0.4,1-0.9c0-0.6-0.5-0.9-0.9-0.9c-0.5,0-0.9,0.4-0.9,0.9C74.9,3,75.3,3.4,75.8,3.4"/>
	<path class="st0" d="M79.1,3.4c0.5,0,0.9-0.3,0.9-0.9c0,0,0-0.1,0-0.1c-0.5-0.2-0.9-0.4-1.5-0.6c-0.2,0.2-0.4,0.5-0.3,0.9
		C78.3,3.1,78.7,3.4,79.1,3.4"/>
	<path class="st0" d="M64.2,1.9c0.6,0.1,1.1-0.4,1.1-1h-1.8h-0.3C63.3,1.5,63.7,1.9,64.2,1.9"/>
	<path class="st0" d="M67.4,1.9c0.2,0,0.5,0,0.6-0.1c0.3-0.1,0.5-0.4,0.6-0.8c0,0,0,0,0-0.1h-2c0,0,0,0,0,0.1
		C66.6,1.4,67,1.8,67.4,1.9"/>
	<path class="st0" d="M70.8,1.8c0.6,0,1-0.4,1.1-0.9h-2C69.9,1.4,70.3,1.8,70.8,1.8"/>
	<path class="st0" d="M74.1,1.8c0.4,0.1,0.8-0.2,0.9-0.4c0.1-0.1,0.1-0.2,0.1-0.3C74.5,1,73.9,1,73.2,0.9v0
		C73.3,1.4,73.6,1.7,74.1,1.8"/>
	<path class="st0" d="M77.4,1.8c0.2,0,0.4,0,0.6-0.1c-0.4-0.1-0.8-0.2-1.3-0.3C76.8,1.6,77.1,1.7,77.4,1.8"/>
	<path class="st0" d="M64.3,29.5c-0.4,0-0.8,0.2-1,0.6h1.9C65.1,29.7,64.7,29.5,64.3,29.5"/>
	<path class="st0" d="M67.5,29.5c-0.3,0-0.7,0.2-0.8,0.6h1.8C68.3,29.7,67.9,29.5,67.5,29.5"/>
	<path class="st0" d="M70.9,29.6c-0.4,0-0.7,0.2-0.9,0.5h1.8C71.6,29.8,71.3,29.6,70.9,29.6"/>
	<path class="st0" d="M74.1,29.6c-0.3,0-0.6,0.2-0.7,0.5c0.5,0,1.1,0,1.6-0.1C74.8,29.7,74.4,29.6,74.1,29.6"/>
	<path class="st0" d="M63.7,28.8c0-0.6-0.5-1-1.1-1c-0.2,0-0.3,0.1-0.5,0.1v-1.5c0.1,0.1,0.3,0.1,0.4,0.1c0.7,0.1,1.2-0.5,1.2-1.1
		c0-0.6-0.5-1-1.1-1c-0.2,0-0.3,0.1-0.5,0.1v-1.5c0.1,0.1,0.3,0.1,0.4,0.2c0.2,0,0.4,0,0.6-0.1c0.4-0.2,0.6-0.6,0.6-1
		c0-0.6-0.5-1-1.1-1c-0.2,0-0.3,0.1-0.5,0.1V10c0.1,0.1,0.3,0.1,0.4,0.1c0.7,0.1,1.2-0.5,1.2-1.1c0-0.6-0.5-1-1.1-1
		c-0.2,0-0.3,0.1-0.5,0.1V6.7c0.1,0.1,0.3,0.1,0.4,0.1c0.7,0.1,1.2-0.5,1.2-1.1c0-0.6-0.5-1-1.1-1c-0.2,0-0.3,0.1-0.5,0.1V3.4
		c0.1,0.1,0.3,0.1,0.4,0.1c0.7,0.1,1.2-0.5,1.2-1.1c0-0.6-0.5-1-1.1-1c-0.2,0-0.3,0.1-0.5,0.1V0.9H50.8v0.5c-0.6,0-1.1,0.4-1.1,1
		c0,0.6,0.5,1.2,1.1,1.1v1.2c-0.6,0-1.1,0.4-1.1,1c0,0.6,0.5,1.2,1.1,1.1V8c-0.6,0-1.1,0.4-1.1,1c0,0.6,0.5,1.2,1.1,1.1v34.7h11.3
		v-15c0.1,0.1,0.3,0.1,0.4,0.1C63.2,30,63.7,29.5,63.7,28.8"/>
	<path class="st0" d="M65.9,27.9c-0.6,0-1,0.5-1,1c0,0.6,0.4,1,1,1c0.6,0.1,1.1-0.4,1.1-1C67,28.3,66.5,27.9,65.9,27.9"/>
	<path class="st0" d="M69.2,27.9c-0.5,0-1,0.4-0.9,1.1c0,0.2,0.1,0.4,0.2,0.5c0.1,0.2,0.4,0.4,0.7,0.4c0.6,0.1,1.1-0.3,1.1-0.9
		C70.3,28.4,69.8,27.8,69.2,27.9"/>
	<path class="st0" d="M71.6,29c0,0.4,0.4,0.8,0.8,0.8c0.5,0.1,0.8-0.2,1-0.4c0.1-0.2,0.2-0.4,0.2-0.7C73.4,27.6,71.4,27.7,71.6,29"
		/>
	<path class="st0" d="M75.8,28c-0.5,0-0.9,0.4-0.9,0.9c0,0.5,0.4,0.9,0.9,0.9c0.5,0,1-0.4,1-0.9C76.8,28.3,76.3,28,75.8,28"/>
	<path class="st0" d="M79.1,28c-0.6,0-1,0.5-0.9,1.1c0,0.1,0,0.1,0.1,0.2c0.6-0.2,1.1-0.4,1.7-0.6C79.9,28.3,79.5,28,79.1,28"/>
	<path class="st0" d="M63.2,27.2c0,0.6,0.4,1,1,1c0.6,0.1,1.1-0.5,1.1-1c0-0.6-0.5-1-1-1.1C63.7,26.2,63.2,26.7,63.2,27.2"/>
	<path class="st0" d="M67.4,28.2c0.2,0,0.5,0,0.6-0.1c0.3-0.1,0.5-0.4,0.6-0.8c0.1-0.7-0.5-1.2-1.1-1.1c-0.5,0.1-1,0.5-0.9,1.1
		C66.6,27.8,67,28.2,67.4,28.2"/>
	<path class="st0" d="M70.8,28.2c0.6,0,1-0.4,1.1-1c0-0.6-0.5-1-1-1c-0.6,0-1,0.4-1,1C69.9,27.8,70.3,28.2,70.8,28.2"/>
	<path class="st0" d="M74.1,28.2c0.4,0.1,0.8-0.2,0.9-0.4c0.5-0.7-0.1-1.6-0.9-1.5c-0.5,0-0.9,0.5-0.9,1
		C73.3,27.8,73.6,28.1,74.1,28.2"/>
	<path class="st0" d="M76.6,27.3c0,0.5,0.3,0.8,0.8,0.8c0.6,0.1,1-0.4,1-0.8C78.5,26,76.5,26,76.6,27.3"/>
	<path class="st0" d="M80.9,26.4c-0.5-0.1-1,0.3-1,0.9c0,0.4,0.4,0.7,0.8,0.8c0.5,0.1,0.9-0.3,1-0.8C81.7,26.8,81.3,26.4,80.9,26.4"
		/>
	<path class="st0" d="M67,25.6c0-0.6-0.5-1-1-1c-0.6,0-1,0.5-1,1c0,0.6,0.4,1,1,1C66.5,26.7,67,26.2,67,25.6"/>
	<path class="st0" d="M70.2,25.7c0.1-0.6-0.4-1.1-1.1-1.1c-0.5,0-1,0.4-0.9,1.1c0,0.2,0.1,0.4,0.2,0.5c0.1,0.2,0.4,0.4,0.7,0.4
		C69.7,26.7,70.2,26.2,70.2,25.7"/>
	<path class="st0" d="M73.3,26.1c0.1-0.2,0.2-0.4,0.2-0.7c-0.1-1.2-2.1-1.1-1.9,0.2c0,0.4,0.4,0.8,0.8,0.8
		C72.9,26.6,73.2,26.4,73.3,26.1"/>
	<path class="st0" d="M75.8,26.5c0.5,0,1-0.4,1-0.9c0-0.6-0.5-0.9-0.9-0.9c-0.5,0-0.9,0.4-0.9,0.9C74.9,26.1,75.3,26.5,75.8,26.5"/>
	<path class="st0" d="M79.1,26.5c0.5,0,0.9-0.3,0.9-0.9c0-0.5-0.4-0.9-0.9-0.9c-0.6,0-1,0.5-0.9,1.1C78.3,26.2,78.7,26.5,79.1,26.5"
		/>
	<path class="st0" d="M81.6,25.5c-0.1,0.5,0.3,0.9,0.7,1c0.6,0.1,1-0.3,1-0.9C83.2,24.5,81.7,24.6,81.6,25.5"/>
	<path class="st0" d="M63.2,23.9c0,0.6,0.4,1,1,1c0.5,0,0.8-0.2,1-0.6h0c0,0,0,0,0,0c0.1-0.1,0.1-0.3,0.1-0.4c0-0.6-0.5-1-1-1.1
		C63.7,22.9,63.2,23.4,63.2,23.9"/>
	<path class="st0" d="M67.4,24.9c0.2,0,0.5,0,0.6-0.1c0.3-0.1,0.5-0.4,0.6-0.8c0.1-0.7-0.5-1.2-1.1-1.1c-0.5,0-1,0.5-0.9,1.1
		C66.6,24.5,67,24.9,67.4,24.9"/>
	<path class="st0" d="M70.8,24.9c0.6,0,1-0.4,1.1-1c0-0.6-0.5-1-1-1c-0.6,0-1,0.4-1,1C69.9,24.5,70.3,24.9,70.8,24.9"/>
	<path class="st0" d="M74.1,24.9c0.4,0.1,0.8-0.2,0.9-0.4c0.5-0.7-0.1-1.6-0.9-1.5c-0.5,0-0.9,0.5-0.9,1
		C73.3,24.5,73.6,24.8,74.1,24.9"/>
	<path class="st0" d="M77.4,24.8c0.4,0,0.7-0.1,0.9-0.4h0c0,0,0,0,0,0c0.1-0.1,0.1-0.3,0.1-0.4c0-0.5-0.2-0.8-0.6-0.9
		c-0.1-0.1-0.3-0.1-0.4-0.1c-0.1,0-0.2,0-0.3,0.1c-0.3,0.1-0.6,0.4-0.5,0.9c0,0,0,0,0,0c0,0,0,0,0,0.1C76.6,24.5,77,24.8,77.4,24.8"
		/>
	<path class="st0" d="M80.7,24.8c0.5,0.1,0.9-0.3,1-0.8c0.1-0.6-0.4-0.9-0.8-1c-0.5-0.1-1,0.3-1,0.9c0,0,0,0,0,0v0c0,0,0,0,0,0
		c0,0,0,0,0,0C80,24.5,80.3,24.8,80.7,24.8"/>
	<path class="st0" d="M63.8,21.6c0.1,0,0.2,0.1,0.3,0.1c0,0,0,0,0,0c0.1,0,0.2,0,0.4,0c0.1,0,0.2-0.1,0.3-0.1c0,0,0,0,0,0
		c0.3-0.2,0.5-0.5,0.5-0.9c0-0.2,0-0.3-0.1-0.4h-1.9c-0.1,0.1-0.1,0.3-0.1,0.4C63.2,21.1,63.5,21.5,63.8,21.6"/>
	<path class="st1" d="M71.2,52.1l-8.4,24.2l-0.6-1.6c0,0-0.1,0-0.1,0c-0.6,0-1,0.5-1.1,1c0,0.6,0.5,1.1,1.1,1.1
		c0.3,0,0.5-0.1,0.7-0.2v1.7c-0.3-0.3-0.7-0.4-1.2-0.1c-0.8,0.4-0.8,1.6,0,2c0.4,0.2,0.9,0.1,1.2-0.1v1.6c-0.2-0.2-0.5-0.3-0.8-0.2
		c-0.7,0.1-1,0.7-1,1.3c0.1,0.5,0.5,1,1.3,0.9c0.2,0,0.4-0.1,0.5-0.2v1.5c-0.2-0.1-0.4-0.2-0.7-0.2c-0.7,0-1.1,0.6-1.1,1.1
		c0,0.6,0.5,1.1,1.1,1.1c0.3,0,0.5-0.1,0.7-0.2V88c-0.2-0.1-0.4-0.2-0.7-0.2c-0.9,0-1.5,1.1-0.9,1.9c-0.3-0.3-1.1-0.3-1.4,0
		c0.3-0.3,0.3-1.2-0.1-1.5c0.7,0.6,1.9,0.1,1.9-0.9c0-0.6-0.5-1.2-1.2-1.2c-0.6,0-1.2,0.5-1.2,1.2c0,0.3,0.1,0.5,0.3,0.7
		c-0.2-0.1-0.4-0.3-0.8-0.3c-0.7,0-1.3,0.6-1.2,1.3l0.1,0.4c0,0,0.1,0.1,0.1,0.1c0,0,0,0-0.1,0l0.5,1.4c0.1-0.4,0-0.9-0.2-1.1
		c0.3,0.3,1.1,0.3,1.4,0c-0.3,0.3-0.3,1-0.1,1.3c-0.2-0.2-0.8-0.2-1.1-0.1l0.5,1.5l0.2,0.7v0l0.2,0.5L60,96h0h1h1.2h0.6h0h2.9
		l8.8-26.6V96h11.3V52.1H71.2z M61.1,92.8c-0.3-0.2-0.9-0.2-1.2,0c0.2-0.3,0.1-1,0-1.2c0.3,0.3,1,0.2,1.3,0
		C60.9,91.9,60.9,92.5,61.1,92.8 M62.7,94.4c-0.2-0.1-0.4-0.1-0.7-0.1c-0.2,0-0.3,0.1-0.4,0.1c0.2-0.3,0.1-0.9,0-1.1
		c0.3,0.2,0.9,0.2,1.1,0C62.6,93.6,62.6,94.2,62.7,94.4 M62.8,91.3c-0.3-0.3-1-0.2-1.3,0c0.3-0.3,0.2-1.1,0-1.3
		c0.3,0.3,1.1,0.3,1.4,0v0C62.6,90.3,62.6,91,62.8,91.3"/>
	<path class="st1" d="M61.9,73.5l-0.5-1.6c-0.1,0.2-0.2,0.4-0.2,0.7C61.2,73,61.4,73.3,61.9,73.5"/>
	<path class="st1" d="M61.6,84.1c0-0.7-0.4-1.2-1.1-1.2c-0.7,0-1.1,0.6-1.1,1.1c0,0.6,0.4,1.1,1.1,1.1
		C61.2,85.2,61.6,84.7,61.6,84.1"/>
	<path class="st1" d="M61.6,80.9c0.1-0.7-0.3-1.2-0.9-1.3c-0.7-0.1-1.2,0.4-1.2,1c-0.1,0.8,0.5,1.3,1.2,1.2
		C61.1,81.8,61.5,81.4,61.6,80.9"/>
	<path class="st1" d="M61.6,77.5c0.1-0.7-0.5-1.2-1.1-1.2c-0.6,0-1,0.5-1,1.1c0,0.6,0.5,1,1.1,1C61.1,78.5,61.5,78.1,61.6,77.5"/>
	<path class="st1" d="M61.5,74.2c0.1-0.6-0.4-1.1-1-1.1c-0.6,0-1,0.5-1,1c0,0.6,0.5,1,1,1C61.1,75.2,61.5,74.7,61.5,74.2"/>
	<path class="st1" d="M59.5,70.9c0,0.5,0.4,1,1.1,0.9c0.2,0,0.4-0.1,0.5-0.2c0,0,0.1-0.1,0.1-0.1l-0.6-1.7
		C60,69.8,59.5,70.3,59.5,70.9"/>
	<path class="st1" d="M60.1,68.4l-0.5-1.3C59.4,67.6,59.6,68.2,60.1,68.4"/>
	<path class="st1" d="M57.7,85.7c0,0.6,0.5,1.1,1.1,1.1c0.6,0,1.1-0.5,1.1-1.1c0-0.6-0.5-1.2-1.1-1.2C58.2,84.5,57.7,85.1,57.7,85.7
		"/>
	<path class="st1" d="M59,83.5c0.5-0.1,0.9-0.5,0.9-0.9c0.1-0.7-0.4-1.4-1.2-1.3c-0.7,0.1-1,0.7-1,1.3C57.8,83,58.3,83.6,59,83.5"/>
	<path class="st1" d="M58.4,80.1c0.7,0.4,1.5-0.2,1.6-0.8c0.1-0.8-0.7-1.5-1.6-1.1C57.6,78.5,57.6,79.7,58.4,80.1"/>
	<path class="st1" d="M59.9,75.9c0.1-0.6-0.5-1.1-1-1.1c-0.6,0-1,0.5-1.1,1c0,0.6,0.5,1.1,1.1,1.1C59.5,76.8,59.9,76.4,59.9,75.9"/>
	<path class="st1" d="M59.9,72.6c0-0.2,0-0.5-0.1-0.6c-0.1-0.3-0.4-0.5-0.8-0.6c-0.7-0.1-1.2,0.5-1.1,1.1c0.1,0.5,0.5,1,1.1,0.9
		C59.4,73.4,59.8,73.1,59.9,72.6"/>
	<path class="st1" d="M59.8,69.2c0-0.6-0.4-1-1-1.1c-0.6,0-1,0.5-1,1c0,0.6,0.4,1,1,1C59.4,70.2,59.8,69.8,59.8,69.2"/>
	<path class="st1" d="M58.9,66.8c0.2,0,0.4-0.1,0.5-0.2l-0.6-1.7c-0.5,0-1,0.5-1,1.1C58,66.5,58.4,66.9,58.9,66.8"/>
	<path class="st1" d="M58.3,84.1c0-0.7-0.4-1.2-1.1-1.2c-0.7,0-1.1,0.6-1.1,1.1c0,0.1,0,0.1,0,0.2l0.1,0.3c0.2,0.4,0.5,0.6,1,0.6
		C57.9,85.2,58.3,84.7,58.3,84.1"/>
	<path class="st1" d="M56.1,80.6c-0.1,0.8,0.5,1.3,1.2,1.2c0.5,0,0.9-0.4,1-0.9c0.1-0.7-0.3-1.2-0.9-1.2
		C56.6,79.6,56.2,80.1,56.1,80.6"/>
	<path class="st1" d="M57.3,78.5c0.5,0,0.9-0.4,1-0.9c0.1-0.7-0.5-1.2-1.1-1.2c-0.6,0-1,0.5-1,1.1C56.2,78.1,56.7,78.5,57.3,78.5"/>
	<path class="st1" d="M56.2,74.1c0,0.6,0.5,1,1,1c0.6,0,1-0.4,1-1c0.1-0.6-0.4-1.1-1-1.1C56.6,73.1,56.2,73.6,56.2,74.1"/>
	<path class="st1" d="M57.3,71.8c0.2,0,0.4-0.1,0.5-0.2c0.2-0.1,0.4-0.4,0.4-0.7c0.1-0.6-0.3-1.1-0.9-1.1c-0.6-0.1-1.1,0.4-1.1,1.1
		C56.3,71.4,56.6,71.9,57.3,71.8"/>
	<path class="st1" d="M57.8,66.7c-0.2-0.1-0.4-0.2-0.7-0.2c-1.2,0.1-1.1,2.1,0.2,1.9c0.4,0,0.8-0.4,0.8-0.8
		C58.2,67.2,58,66.9,57.8,66.7"/>
	<path class="st1" d="M56.3,64.2c0,0.5,0.4,0.9,0.9,0.9c0.5,0,0.9-0.4,0.9-0.9c0-0.5-0.4-1-0.9-1C56.6,63.3,56.3,63.8,56.3,64.2"/>
	<path class="st1" d="M57.4,61.8c0.1,0,0.2-0.1,0.3-0.1L57.2,60c-0.5,0-0.9,0.4-0.9,0.9C56.3,61.5,56.8,61.9,57.4,61.8"/>
	<path class="st1" d="M56.7,82.5c0.1-0.7-0.4-1.4-1.2-1.3c-0.1,0-0.2,0-0.3,0.1l0.7,2.1C56.3,83.4,56.6,83,56.7,82.5"/>
	<path class="st1" d="M56.6,79.2c0.1-0.8-0.7-1.5-1.6-1.1c-0.8,0.4-0.8,1.6,0,2C55.8,80.4,56.6,79.9,56.6,79.2"/>
	<path class="st1" d="M54.5,75.8c0,0.6,0.5,1.1,1.1,1.1c0.6,0,1-0.4,1-1c0.1-0.6-0.5-1.1-1-1.1C54.9,74.7,54.5,75.2,54.5,75.8"/>
	<path class="st1" d="M55.7,73.5c0.5,0,0.8-0.4,0.9-0.9c0-0.2,0-0.5-0.1-0.6c-0.1-0.3-0.4-0.5-0.8-0.6c-0.7-0.1-1.2,0.5-1.1,1.1
		C54.6,73.1,55,73.6,55.7,73.5"/>
	<path class="st1" d="M55.6,68.2c-0.6,0-1,0.5-1,1c0,0.6,0.4,1,1,1c0.5,0,0.9-0.4,1-0.9C56.6,68.7,56.1,68.2,55.6,68.2"/>
	<path class="st1" d="M56.1,65.1c-0.7-0.5-1.6,0.1-1.5,0.9c0,0.5,0.5,0.9,1,0.9c0.5,0,0.8-0.4,0.9-0.8
		C56.6,65.6,56.3,65.2,56.1,65.1"/>
	<path class="st1" d="M55.6,61.7c-1.3-0.1-1.3,1.9,0,1.8c0.5,0,0.8-0.3,0.8-0.8C56.5,62.1,56.1,61.7,55.6,61.7"/>
	<path class="st1" d="M54.7,59.2c-0.1,0.5,0.3,1,1,1c0.4,0,0.7-0.4,0.8-0.8c0.1-0.5-0.3-0.9-0.8-1C55.1,58.4,54.7,58.8,54.7,59.2"/>
	<path class="st1" d="M55.6,56.8c0.2,0,0.3,0,0.4-0.1l-0.5-1.5c-0.5,0-0.7,0.4-0.7,0.8C54.7,56.5,55.1,56.8,55.6,56.8"/>
	<path class="st1" d="M55,77.5c0.1-0.7-0.5-1.2-1.1-1.2c-0.1,0-0.2,0-0.3,0.1l0.7,2C54.6,78.3,54.9,78,55,77.5"/>
	<path class="st1" d="M54.9,74.2c0.1-0.6-0.4-1.1-1-1.1c-0.6,0-1,0.5-1,1c0,0.6,0.5,1,1,1C54.5,75.2,54.9,74.7,54.9,74.2"/>
	<path class="st1" d="M52.9,70.9c0,0.5,0.4,1,1.1,0.9c0.2,0,0.4-0.1,0.5-0.2c0.2-0.1,0.4-0.4,0.4-0.7c0.1-0.6-0.3-1.1-0.9-1.1
		C53.4,69.8,52.9,70.3,52.9,70.9"/>
	<path class="st1" d="M54,68.5c0.4,0,0.8-0.4,0.8-0.8c0.1-0.5-0.2-0.8-0.4-0.9c-0.2-0.1-0.4-0.2-0.7-0.2
		C52.6,66.7,52.7,68.6,54,68.5"/>
	<path class="st1" d="M53.9,63.3c-0.6,0-0.9,0.5-0.9,0.9c0,0.5,0.4,0.9,0.9,0.9c0.5,0,0.9-0.4,0.9-0.9
		C54.9,63.8,54.5,63.3,53.9,63.3"/>
	<path class="st1" d="M53.9,60c-0.5,0-0.9,0.4-0.9,0.9c0,0.6,0.5,1,1.1,0.9c0.4-0.1,0.6-0.4,0.7-0.8C54.8,60.5,54.5,60,53.9,60"/>
	<path class="st1" d="M53.8,56.8c-1,0.1-0.9,1.6,0,1.7c0.5,0.1,0.9-0.3,1-0.7C54.8,57.2,54.4,56.7,53.8,56.8"/>
	<path class="st1" d="M54.7,54.4c0.1-0.5-0.3-0.9-0.8-0.9c-0.7,0-1.1,0.9-0.6,1.4C53.8,55.4,54.6,55.1,54.7,54.4"/>
	<path class="st1" d="M53.3,72.6c0-0.2,0-0.5-0.1-0.6c-0.1-0.3-0.4-0.5-0.8-0.6c-0.2,0-0.3,0-0.5,0.1l0.6,1.9
		C52.9,73.4,53.2,73,53.3,72.6"/>
	<path class="st1" d="M53.2,69.2c0-0.6-0.4-1-1-1.1c-0.6,0-1,0.5-1,1c0,0.6,0.4,1,1,1C52.8,70.2,53.2,69.8,53.2,69.2"/>
	<path class="st1" d="M52.3,66.8c0.5,0,0.8-0.4,0.9-0.8c0.1-0.4-0.2-0.8-0.4-0.9c-0.7-0.5-1.6,0.1-1.5,0.9
		C51.4,66.5,51.8,66.9,52.3,66.8"/>
	<path class="st1" d="M52.3,63.5c0.5,0,0.8-0.3,0.8-0.8c0.1-0.6-0.4-1-0.8-1C51.1,61.6,51.1,63.6,52.3,63.5"/>
	<path class="st1" d="M52.4,58.4c-0.6-0.1-0.9,0.4-1,0.8c-0.1,0.5,0.3,1,0.9,1c0.4,0,0.7-0.4,0.8-0.8C53.2,58.9,52.8,58.5,52.4,58.4
		"/>
	<path class="st1" d="M52.3,56.8c0.4,0,0.8-0.3,0.8-0.8c0-0.5-0.3-0.9-0.8-0.9c-0.5,0-0.8,0.4-0.8,0.8
		C51.4,56.5,51.8,56.8,52.3,56.8"/>
	<path class="st1" d="M52.4,53.5c0.2,0,0.3-0.1,0.3-0.1c0.2-0.1,0.3-0.3,0.3-0.5c0-0.3-0.1-0.5-0.2-0.7h-1.1
		C51.3,52.6,51.6,53.6,52.4,53.5"/>
	<path class="st1" d="M51.6,67.7c0.1-0.5-0.2-0.8-0.4-0.9c0,0,0,0,0,0V65c0.2-0.2,0.4-0.4,0.4-0.7c0-0.3-0.1-0.6-0.4-0.8v-1.8
		c0.2-0.2,0.3-0.4,0.3-0.7c0-0.3-0.1-0.6-0.3-0.7v-1.9c0.2-0.1,0.3-0.3,0.3-0.5c0-0.3-0.1-0.6-0.3-0.8v-2.1c0.1-0.1,0.2-0.3,0.3-0.5
		c0-0.3-0.1-0.5-0.3-0.7v-1.6H39.8v34H12.3v-7.4h19v-9.9h-19v-6.7h0.8c0-0.1,0-0.1,0-0.2c-0.1-0.7-0.7-1-1.3-1
		c-0.2,0-0.4,0.1-0.6,0.3v0h-0.1c0.2-0.2,0.3-0.5,0.3-0.8c0-0.7-0.6-1.1-1.1-1.1c-0.6,0-1.1,0.4-1.1,1.1c0,0.3,0.1,0.6,0.3,0.8H9.5
		C9.3,61.1,9,61,8.7,61c-0.3,0-0.6,0.1-0.8,0.3h0c0.2-0.2,0.3-0.5,0.3-0.8c0-0.6-0.5-1.2-1.2-1.2c-0.3,0-0.5,0.1-0.7,0.3
		c0.1-0.2,0.3-0.4,0.3-0.7c0-0.8-0.8-1.4-1.6-1.1c-0.1,0-0.1,0.1-0.2,0.1c0.3-0.3,0.3-1.1,0-1.4c0.3,0.3,1.2,0.3,1.5-0.1
		c-0.1,0.2-0.3,0.4-0.3,0.7c0,0.7,0.5,1.2,1.2,1.2c0.6,0,1.2-0.5,1.2-1.2c0-1-1.2-1.5-1.9-0.9c0.1-0.2,0.3-0.4,0.3-0.8
		c0-0.9-1.1-1.5-1.9-0.9c0.3-0.3,0.3-1.1,0-1.4c0.3,0.3,1.2,0.3,1.5-0.1c-0.2,0.2-0.3,0.4-0.3,0.7c0,0.7,0.5,1.2,1.2,1.2
		c0.6,0,1.2-0.5,1.2-1.2c0-1-1.2-1.5-1.9-0.9c0.1-0.2,0.2-0.4,0.3-0.7H4.3c0,0.2,0.1,0.5,0.2,0.6c-0.3-0.3-1-0.3-1.3-0.1
		c0.1-0.1,0.2-0.3,0.2-0.6H1V96h50.1V68.3C51.4,68.2,51.5,68,51.6,67.7 M2.7,61.1c-0.3-0.2-0.9-0.2-1.2,0c0.2-0.3,0.2-0.9,0-1.2
		c0.3,0.2,1,0.1,1.2,0C2.5,60.1,2.6,60.8,2.7,61.1 M2.7,57.8c-0.3-0.2-0.9-0.2-1.2,0c0.2-0.3,0.2-0.9,0-1.2c0.3,0.2,1,0.1,1.2,0
		C2.5,56.8,2.6,57.5,2.7,57.8 M2.7,54.5c-0.3-0.2-0.9-0.2-1.2,0c0.2-0.3,0.2-0.9,0-1.2c0.3,0.2,1,0.1,1.2,0
		C2.5,53.5,2.6,54.2,2.7,54.5 M4.5,59.5c-0.3-0.3-1-0.3-1.3-0.1c0.3-0.3,0.2-1,0-1.3c0.3,0.3,1.1,0.2,1.3,0
		C4.2,58.4,4.2,59.2,4.5,59.5 M4.5,56.2c-0.3-0.3-1-0.3-1.3-0.1c0.3-0.3,0.2-1,0-1.3c0.3,0.3,1.1,0.2,1.3,0
		C4.2,55.1,4.2,55.9,4.5,56.2 M6.2,61.3c-0.4-0.3-1-0.5-1.5-0.1c0.3-0.3,0.3-1.1,0-1.4c0.3,0.3,1.2,0.3,1.5-0.1
		C5.8,60.2,5.9,60.9,6.2,61.3L6.2,61.3z"/>
	<path class="st1" d="M58.4,87.3c0-0.6-0.5-1.2-1.2-1.2c-0.2,0-0.3,0-0.4,0.1l0.7,2.2C58,88.3,58.4,87.8,58.4,87.3"/>
	<path class="st1" d="M16.3,61.6c-0.4-0.8-1.6-0.8-2,0c-0.1,0.2-0.1,0.4-0.1,0.6h2.2C16.4,62,16.4,61.8,16.3,61.6"/>
	<path class="st1" d="M19.7,62.2C19.7,62.1,19.7,62.1,19.7,62.2c0-0.7-0.5-1.1-1-1.1c-0.6,0-1.1,0.5-1.1,1.1c0,0,0,0,0,0.1H19.7z"/>
	<path class="st1" d="M21.8,61.1c-0.5,0.1-0.9,0.5-0.9,1.1h2C23,61.5,22.4,61,21.8,61.1"/>
	<path class="st1" d="M26.2,62.2C26.2,62.2,26.2,62.1,26.2,62.2c0-0.7-0.5-1.1-1-1.1c-0.6,0-1,0.4-1,1c0,0,0,0.1,0,0.1H26.2z"/>
	<path class="st1" d="M28.4,61.1c-0.5,0-0.9,0.5-0.9,1h1.9C29.5,61.6,29,61.1,28.4,61.1"/>
	<path class="st1" d="M31.9,62.2v-1c-0.5-0.1-1.1,0.2-1.1,0.9c0,0,0,0,0,0H31.9z"/>
	<path class="st1" d="M13.5,61.5c0.7,0.1,1.2-0.3,1.3-0.9c0.1-0.7-0.4-1.2-1-1.2c-0.8-0.1-1.3,0.5-1.2,1.2
		C12.6,61.1,13,61.5,13.5,61.5"/>
	<path class="st1" d="M18,60.4c0-0.6-0.5-1-1.1-1c-0.6,0-1,0.5-1,1.1c0,0.5,0.4,0.9,0.9,1C17.5,61.6,18.1,61,18,60.4"/>
	<path class="st1" d="M21.3,60.4c0-0.6-0.5-1-1-1c-0.6,0-1,0.5-1,1c0,0.6,0.4,1,1,1C20.8,61.5,21.3,61,21.3,60.4"/>
	<path class="st1" d="M24.6,60.5c0.1-0.6-0.4-1.1-1.1-1.1c-0.5,0-1,0.4-0.9,1.1c0,0.2,0.1,0.4,0.2,0.5c0.1,0.2,0.4,0.4,0.7,0.4
		C24,61.5,24.5,61.1,24.6,60.5"/>
	<path class="st1" d="M27.7,61c0.1-0.2,0.2-0.4,0.2-0.7c-0.1-1.2-2.1-1.1-1.9,0.2c0,0.4,0.4,0.8,0.8,0.8
		C27.2,61.5,27.5,61.2,27.7,61"/>
	<path class="st1" d="M30.1,61.4c0.5,0,1-0.4,1-0.9c0-0.6-0.5-0.9-0.9-0.9c-0.5,0-0.9,0.4-0.9,0.9C29.2,61,29.6,61.3,30.1,61.4"/>
	<path class="st1" d="M7.6,58.8c0,0.6,0.5,1.1,1.1,1.1c0.6,0,1.2-0.5,1.2-1.1c0-0.7-0.6-1.1-1.1-1.1C8.1,57.7,7.6,58.1,7.6,58.8"/>
	<path class="st1" d="M11.8,59.9c0.7,0.1,1.4-0.4,1.3-1.2c-0.1-0.7-0.7-1-1.3-1c-0.5,0.1-1,0.5-0.9,1.3C11,59.5,11.4,59.8,11.8,59.9
		"/>
	<path class="st1" d="M14.3,58.3c-0.4,0.7,0.2,1.5,0.8,1.6c0.8,0.1,1.5-0.7,1.1-1.6C15.9,57.5,14.7,57.6,14.3,58.3"/>
	<path class="st1" d="M18.6,57.7c-0.6,0-1.1,0.5-1.1,1.1c0,0.6,0.4,1,1,1c0.6,0.1,1.1-0.5,1.1-1C19.7,58.2,19.2,57.8,18.6,57.7"/>
	<path class="st1" d="M21.8,57.8c-0.5,0.1-1,0.5-0.9,1.1c0,0.5,0.4,0.8,0.9,0.9c0.2,0,0.5,0,0.6-0.1c0.3-0.1,0.5-0.4,0.6-0.8
		C23,58.2,22.4,57.7,21.8,57.8"/>
	<path class="st1" d="M25.2,57.8c-0.6,0-1,0.4-1,1c0,0.6,0.4,0.9,0.9,1c0.6,0,1-0.4,1.1-1C26.2,58.2,25.7,57.8,25.2,57.8"/>
	<path class="st1" d="M28.4,57.9c-0.5,0-0.9,0.5-0.9,1c0,0.5,0.4,0.8,0.8,0.9c0.4,0.1,0.8-0.2,0.9-0.4
		C29.8,58.7,29.2,57.8,28.4,57.9"/>
	<path class="st1" d="M31.9,57.9c-0.5-0.1-1.1,0.2-1.1,0.9c0,0.5,0.3,0.8,0.8,0.8c0.1,0,0.2,0,0.3,0V57.9z"/>
	<path class="st1" d="M11.5,57.2c0-0.7-0.6-1.1-1.1-1.1c-0.6,0-1.1,0.4-1.1,1.1c0,0.6,0.5,1.1,1.1,1.1
		C10.9,58.3,11.5,57.8,11.5,57.2"/>
	<path class="st1" d="M12.6,57.3c0,0.5,0.4,0.9,0.9,0.9c0.7,0.1,1.2-0.3,1.3-0.9c0.1-0.7-0.4-1.2-1-1.2C13,56,12.5,56.6,12.6,57.3"
		/>
	<path class="st1" d="M15.9,57.2c0,0.5,0.4,0.9,0.9,1c0.7,0.1,1.2-0.5,1.2-1.1c0-0.6-0.5-1-1.1-1C16.3,56.1,15.9,56.6,15.9,57.2"/>
	<path class="st1" d="M19.2,57.2c0,0.6,0.4,1,1,1c0.6,0.1,1.1-0.4,1.1-1c0-0.6-0.5-1-1-1C19.7,56.1,19.2,56.6,19.2,57.2"/>
	<path class="st1" d="M22.6,57.2c0,0.2,0.1,0.4,0.2,0.5c0.1,0.2,0.4,0.4,0.7,0.4c0.6,0.1,1.1-0.3,1.1-0.9c0.1-0.6-0.4-1.1-1.1-1.1
		C23,56.2,22.5,56.6,22.6,57.2"/>
	<path class="st1" d="M25.9,57.3c0,0.4,0.4,0.8,0.8,0.8c0.5,0.1,0.8-0.2,1-0.4c0.1-0.2,0.2-0.4,0.2-0.7C27.7,55.8,25.8,56,25.9,57.3
		"/>
	<path class="st1" d="M30.1,58.1c0.5,0,1-0.4,1-0.9c0-0.6-0.5-0.9-0.9-0.9c-0.5,0-0.9,0.4-0.9,0.9C29.2,57.7,29.6,58,30.1,58.1"/>
	<path class="st1" d="M9.9,55.5c0-0.7-0.6-1.1-1.1-1.1c-0.6,0-1.1,0.5-1.1,1.1c0,0.6,0.5,1.1,1.1,1.1C9.3,56.7,9.9,56.2,9.9,55.5"/>
	<path class="st1" d="M11.8,54.4c-0.5,0.1-1,0.5-0.9,1.3c0.1,0.5,0.5,0.9,0.9,0.9c0.7,0.1,1.4-0.4,1.3-1.2
		C13.1,54.7,12.4,54.3,11.8,54.4"/>
	<path class="st1" d="M14.3,55c-0.4,0.7,0.2,1.5,0.8,1.6c0.8,0.1,1.5-0.7,1.1-1.6C15.9,54.2,14.7,54.3,14.3,55"/>
	<path class="st1" d="M18.6,54.4c-0.6,0-1.1,0.5-1.1,1.1c0,0.6,0.4,1,1,1c0.6,0.1,1.1-0.5,1.1-1C19.7,54.9,19.2,54.5,18.6,54.4"/>
	<path class="st1" d="M21.8,54.5c-0.5,0.1-1,0.5-0.9,1.1c0,0.5,0.4,0.8,0.9,0.9c0.2,0,0.5,0,0.6-0.1c0.3-0.1,0.5-0.4,0.6-0.8
		C23,54.9,22.4,54.4,21.8,54.5"/>
	<path class="st1" d="M25.2,54.5c-0.6,0-1,0.4-1,1c0,0.6,0.4,1,0.9,1c0.6,0,1-0.4,1.1-1C26.2,54.9,25.7,54.5,25.2,54.5"/>
	<path class="st1" d="M28.4,54.6c-0.5,0-0.9,0.5-0.9,1c0,0.5,0.4,0.8,0.8,0.9c0.4,0.1,0.8-0.2,0.9-0.4
		C29.8,55.4,29.2,54.5,28.4,54.6"/>
	<path class="st1" d="M31.9,54.6c-0.5-0.1-1.1,0.2-1.1,0.9c0,0.5,0.3,0.8,0.8,0.8c0.1,0,0.2,0,0.3,0V54.6z"/>
	<path class="st1" d="M9.2,53.8c0,0.6,0.5,1.1,1.1,1.1c0.7,0,1.2-0.4,1.2-1.1c0-0.7-0.6-1.1-1.1-1.2C9.8,52.7,9.2,53.2,9.2,53.8"/>
	<path class="st1" d="M12.6,54c0,0.5,0.4,0.9,0.9,1c0.7,0.1,1.2-0.3,1.3-0.9c0.1-0.7-0.4-1.2-1-1.2C13.1,52.7,12.5,53.2,12.6,54"/>
	<path class="st1" d="M15.9,53.9c0,0.5,0.4,0.9,0.9,1c0.7,0.1,1.2-0.5,1.2-1.1c0-0.6-0.5-1-1.1-1C16.3,52.8,15.9,53.3,15.9,53.9"/>
	<path class="st1" d="M19.2,53.9c0,0.6,0.4,1,1,1c0.6,0.1,1.1-0.4,1.1-1c0-0.6-0.5-1-1-1C19.7,52.8,19.2,53.3,19.2,53.9"/>
	<path class="st1" d="M22.6,53.9c0,0.2,0.1,0.4,0.2,0.5c0.1,0.2,0.4,0.4,0.7,0.4c0.6,0.1,1.1-0.3,1.1-0.9c0.1-0.6-0.4-1.1-1.1-1.1
		C23,52.9,22.5,53.3,22.6,53.9"/>
	<path class="st1" d="M25.9,54c0,0.4,0.4,0.8,0.8,0.8c0.5,0.1,0.8-0.2,1-0.4c0.1-0.2,0.2-0.4,0.2-0.7C27.7,52.5,25.8,52.7,25.9,54"
		/>
	<path class="st1" d="M30.1,54.8c0.5,0,1-0.4,1-0.9c0-0.6-0.5-0.9-0.9-0.9c-0.5,0-0.9,0.4-0.9,0.9C29.2,54.4,29.6,54.7,30.1,54.8"/>
	<path class="st1" d="M8.7,53.3c0.6,0,1.1-0.4,1.2-1H7.6C7.6,52.9,8.1,53.3,8.7,53.3"/>
	<path class="st1" d="M11.8,53.3c0.7,0.1,1.2-0.3,1.3-1h-2.2c0,0,0,0.1,0,0.1C11,52.9,11.4,53.2,11.8,53.3"/>
	<path class="st1" d="M15.2,53.3c0.6,0.1,1.2-0.4,1.2-1h-2.2C14.3,52.8,14.7,53.2,15.2,53.3"/>
	<path class="st1" d="M18.5,53.2c0.6,0,1.1-0.4,1.1-1h-2.1C17.6,52.8,18,53.2,18.5,53.2"/>
	<path class="st1" d="M21.8,53.2c0.2,0,0.5,0,0.6-0.1c0.3-0.1,0.5-0.4,0.6-0.8c0,0,0,0,0,0h-2c0,0,0,0,0,0
		C20.9,52.8,21.3,53.1,21.8,53.2"/>
	<path class="st1" d="M25.1,53.2c0.6,0,1-0.4,1-0.9h-2C24.3,52.8,24.6,53.1,25.1,53.2"/>
	<path class="st1" d="M28.4,53.1c0.4,0.1,0.8-0.2,0.9-0.4c0.1-0.1,0.1-0.3,0.2-0.4h-1.9C27.6,52.8,27.9,53.1,28.4,53.1"/>
	<path class="st1" d="M31.7,53.1c0.1,0,0.2,0,0.3,0v-0.8h-1.1C30.9,52.7,31.2,53,31.7,53.1"/>
</g>
</svg>
